<?xml version="1.0" standalone="no"?>
<!DOCTYPE svg PUBLIC "-//W3C//DTD SVG 20010904//EN"
 "http://www.w3.org/TR/2001/REC-SVG-20010904/DTD/svg10.dtd">
<svg version="1.0" xmlns="http://www.w3.org/2000/svg"
 width="300.000000pt" height="300.000000pt" viewBox="0 0 300.000000 300.000000"
 preserveAspectRatio="xMidYMid meet">
<metadata>
Created by potrace 1.10, written by Peter Selinger 2001-2011
</metadata>
<g transform="translate(0.000000,300.000000) scale(0.100000,-0.100000)"
fill="#FFFFFF" stroke="none">
<path d="M957 2613 c-14 -13 -6 -89 22 -211 16 -70 32 -149 36 -177 19 -128
94 -309 144 -345 51 -36 142 -34 157 3 3 8 -11 38 -31 68 -44 66 -100 178 -93
185 3 3 19 -19 36 -49 43 -76 136 -174 172 -182 42 -9 68 2 86 37 39 76 -13
164 -225 384 -91 94 -191 198 -221 232 -53 59 -69 70 -83 55z"/>
<path d="M2008 2559 c-10 -5 -68 -80 -130 -167 -61 -86 -152 -209 -200 -273
-92 -120 -114 -172 -88 -204 18 -21 47 -19 95 10 46 26 76 61 123 145 18 30
32 49 32 42 0 -14 -61 -141 -85 -174 -37 -53 3 -92 68 -65 94 40 168 244 208
575 13 107 8 129 -23 111z"/>
<path d="M1962 1900 c-141 -97 -146 -104 -117 -160 40 -77 160 -1 236 148 28
56 37 102 21 102 -5 0 -68 -41 -140 -90z"/>
<path d="M407 1934 c-7 -8 63 -150 106 -214 64 -96 159 -175 273 -227 l55 -25
24 26 c22 24 30 26 115 26 58 0 90 4 88 10 -2 6 -46 25 -98 44 -97 33 -151 59
-205 95 -41 28 -29 26 46 -8 131 -59 285 -88 296 -55 2 6 -13 31 -33 55 -20
24 -46 63 -57 85 l-20 42 -99 7 c-160 11 -271 38 -378 92 -52 26 -98 49 -101
51 -3 1 -8 0 -12 -4z"/>
<path d="M2449 1849 c-127 -63 -186 -84 -309 -110 -111 -24 -204 -60 -237 -91
-26 -25 -30 -63 -7 -72 48 -18 200 6 298 48 22 9 41 14 44 11 9 -9 -134 -67
-232 -93 -104 -29 -130 -47 -110 -80 9 -14 28 -18 102 -20 166 -5 304 51 428
173 77 76 151 191 161 249 5 31 3 36 -14 36 -11 0 -67 -23 -124 -51z"/>
<path d="M1026 1875 c-8 -23 32 -122 66 -161 39 -44 70 -44 115 1 29 29 32 37
23 54 -6 12 -22 24 -36 27 -14 4 -45 21 -69 39 -41 32 -79 55 -88 55 -3 0 -7
-7 -11 -15z"/>
<path d="M1343 1840 c-58 -35 -53 -108 11 -138 61 -30 146 19 146 84 0 66 -88
96 -157 54z"/>
<path d="M1614 1846 c-46 -20 -58 -70 -29 -125 15 -29 68 -61 103 -61 33 0 82
21 92 40 29 55 -10 131 -78 150 -46 12 -50 12 -88 -4z"/>
<path d="M1455 1666 c-37 -16 -82 -67 -91 -102 -16 -64 17 -136 77 -167 61
-32 152 2 183 67 60 127 -48 255 -169 202z"/>
<path d="M1185 1635 c-20 -19 -25 -34 -25 -75 0 -44 4 -56 30 -82 37 -37 71
-33 113 13 81 88 -34 229 -118 144z"/>
<path d="M1730 1617 c-33 -17 -50 -53 -50 -110 0 -60 31 -97 83 -97 49 0 70
28 75 100 4 55 2 61 -26 90 -34 33 -45 36 -82 17z"/>
<path d="M900 1469 c0 -49 93 -100 197 -107 90 -6 99 6 51 71 l-33 46 -107 0
c-70 1 -108 -3 -108 -10z"/>
<path d="M1255 1375 c-38 -37 -35 -98 6 -136 63 -59 189 -27 189 48 0 8 -7 30
-16 48 -30 64 -133 87 -179 40z"/>
<path d="M1860 1378 c-41 -15 -52 -54 -26 -93 21 -32 140 -88 246 -116 146
-38 140 -53 -9 -25 -41 8 -80 12 -87 9 -41 -16 12 -59 106 -88 83 -24 269 -45
411 -45 139 0 159 4 159 29 0 66 -332 276 -501 316 -91 21 -255 28 -299 13z"/>
<path d="M855 1361 c-83 -38 -181 -146 -263 -286 -66 -114 -102 -245 -68 -245
7 0 52 31 99 69 98 79 176 124 377 216 80 36 158 79 175 96 29 28 29 30 15 57
-33 57 -156 34 -288 -55 -89 -59 -90 -60 -67 -33 11 13 53 47 93 77 95 71 96
101 2 117 -24 4 -48 0 -75 -13z"/>
<path d="M1558 1354 c-53 -28 -63 -85 -25 -130 19 -22 32 -27 68 -27 109 0
165 87 99 153 -24 24 -101 27 -142 4z"/>
<path d="M1757 1233 c-17 -17 -2 -43 58 -101 76 -74 85 -97 18 -46 -73 56
-120 77 -143 64 -48 -26 -9 -71 150 -176 69 -45 140 -94 159 -108 19 -14 38
-23 44 -19 16 9 -1 94 -31 153 -17 34 -62 90 -118 147 -84 85 -118 106 -137
86z"/>
<path d="M1257 1146 c-19 -19 -58 -69 -87 -110 -29 -42 -55 -74 -58 -72 -2 3
13 36 35 73 22 37 44 78 47 91 6 19 4 22 -19 22 -44 0 -135 -100 -168 -184
-35 -86 -53 -210 -38 -249 9 -24 13 -26 32 -17 11 7 54 44 95 83 158 150 271
326 243 378 -15 28 -44 23 -82 -15z"/>
<path d="M1423 1170 c-45 -18 -27 -86 48 -187 47 -62 71 -67 95 -20 9 17 30
51 46 75 48 70 24 104 -92 131 -54 13 -68 13 -97 1z"/>
<path d="M1296 943 c-30 -43 -81 -107 -113 -142 l-58 -64 0 -167 c0 -142 3
-171 18 -193 10 -15 24 -27 32 -27 18 0 52 46 105 145 23 44 76 129 118 190
41 60 78 121 82 136 18 63 -30 167 -66 144 -23 -15 -79 -110 -119 -200 -19
-44 -35 -72 -35 -62 0 30 40 138 81 217 21 42 39 82 39 88 0 31 -33 5 -84 -65z"/>
<path d="M1610 958 c-11 -18 -25 -49 -31 -69 -10 -33 -9 -42 17 -89 62 -114
244 -290 395 -382 78 -47 93 -42 86 26 -9 74 -182 421 -232 465 -75 65 -85 10
-21 -114 25 -49 44 -90 42 -92 -5 -5 -62 82 -116 177 -23 41 -50 83 -58 93
-24 28 -60 21 -82 -15z"/>
</g>
</svg>
