<svg id="svg" version="1.1" xmlns="http://www.w3.org/2000/svg" xmlns:xlink="http://www.w3.org/1999/xlink" width="400" height="382" viewBox="0, 0, 400,382"><g id="svgg"><path id="path0" d="M272.710 11.768 C 271.829 12.741,270.109 16.229,268.887 19.518 C 267.665 22.808,266.403 25.801,266.083 26.170 C 265.762 26.538,252.675 26.448,237.000 25.968 C 221.325 25.489,196.735 24.818,182.356 24.478 L 156.212 23.859 154.606 26.152 C 153.723 27.413,153.000 30.117,153.000 32.160 C 153.000 35.797,152.932 35.863,149.728 35.343 C 147.929 35.051,136.903 35.749,125.227 36.895 C 113.551 38.040,94.436 39.910,82.749 41.051 C 69.316 42.363,60.696 43.647,59.314 44.544 C 56.485 46.379,56.718 44.123,52.512 110.500 C 50.560 141.300,47.849 183.375,46.487 204.000 C 45.125 224.625,44.008 242.905,44.005 244.622 C 44.000 247.499,43.681 247.795,39.928 248.396 C 24.033 250.937,21.094 273.523,33.478 297.959 C 44.161 319.035,75.921 345.417,103.506 356.128 C 129.519 366.229,158.904 365.478,171.869 354.380 C 179.091 348.198,185.289 331.207,184.484 319.800 L 184.151 315.100 188.326 314.565 C 190.622 314.272,203.075 313.359,216.000 312.537 C 228.925 311.715,250.525 310.345,264.000 309.491 C 342.286 304.533,338.324 304.904,341.250 302.267 C 343.563 300.183,343.477 295.477,341.083 293.083 C 340.029 292.029,339.391 290.942,339.666 290.668 C 340.202 290.131,340.680 277.553,341.515 242.000 C 341.805 229.625,342.831 199.250,343.794 174.500 L 345.545 129.500 351.550 121.464 C 365.885 102.279,372.384 84.695,372.453 64.906 L 372.500 51.311 369.000 44.442 C 363.280 33.216,353.613 29.296,347.275 35.634 C 343.289 39.620,318.488 37.054,308.615 31.633 C 306.478 30.460,302.878 28.542,300.615 27.372 C 298.352 26.202,292.581 21.814,287.792 17.622 C 278.677 9.644,275.684 8.482,272.710 11.768 M283.866 22.833 C 287.515 26.042,292.292 29.867,294.482 31.333 L 298.464 34.000 295.387 34.000 C 292.455 34.000,281.124 27.627,279.562 25.100 C 278.227 22.940,277.012 24.068,275.896 28.500 C 275.055 31.837,274.276 33.000,272.881 33.000 C 270.490 33.000,270.482 33.082,273.750 24.361 C 277.037 15.588,275.833 15.770,283.866 22.833 M210.500 29.503 C 236.900 30.301,260.637 30.965,263.250 30.977 C 266.106 30.991,268.000 31.451,268.000 32.132 C 268.000 32.960,262.298 33.084,246.750 32.594 C 180.878 30.516,160.522 30.084,159.909 30.754 C 159.223 31.503,171.526 145.860,172.385 146.718 C 172.637 146.970,178.391 142.241,185.172 136.208 C 229.197 97.040,262.550 68.226,262.853 69.098 C 263.326 70.466,260.998 72.976,251.442 81.398 C 247.010 85.304,238.052 93.225,231.535 99.000 C 218.356 110.681,212.027 116.186,199.923 126.500 C 195.405 130.350,187.667 137.011,182.727 141.303 C 171.832 150.767,169.637 151.124,169.238 143.500 C 168.969 138.348,166.036 110.035,163.489 88.000 C 156.579 28.221,156.566 27.982,160.309 28.025 C 161.514 28.039,184.100 28.704,210.500 29.503 M313.720 40.519 C 330.288 44.847,349.784 45.542,350.752 41.840 C 352.282 35.991,360.031 39.559,363.670 47.789 C 382.751 90.933,313.743 173.136,286.130 140.155 C 271.755 122.986,258.993 72.563,267.000 64.575 C 268.333 63.245,268.516 64.548,268.647 76.289 C 268.964 104.787,282.222 136.601,296.218 142.447 C 313.507 149.669,343.358 124.436,355.896 92.000 C 360.889 79.083,363.615 56.638,360.911 50.704 L 359.822 48.315 345.161 48.755 C 334.374 49.078,328.602 48.790,323.317 47.665 C 316.223 46.154,298.000 38.434,298.000 36.938 C 298.000 35.276,300.672 35.364,304.220 37.144 C 306.265 38.170,310.540 39.689,313.720 40.519 M150.401 40.603 C 150.740 41.485,151.456 55.773,151.993 72.353 C 152.531 88.934,153.416 114.425,153.961 129.000 C 154.506 143.575,155.403 169.000,155.956 185.500 C 156.508 202.000,157.203 218.650,157.499 222.500 C 158.120 230.559,157.416 230.236,151.895 219.928 C 146.858 210.522,140.765 203.527,125.780 189.943 C 115.605 180.720,115.251 180.728,111.554 190.292 C 104.778 207.820,95.903 222.205,86.759 230.480 C 76.587 239.685,49.964 256.297,48.204 254.537 C 47.572 253.906,48.196 243.494,55.987 124.570 C 58.722 82.808,61.307 48.320,61.730 47.931 C 62.402 47.312,138.296 39.437,146.643 39.119 C 148.685 39.042,150.001 39.561,150.401 40.603 M308.363 54.367 C 312.364 56.712,313.402 58.186,315.441 64.423 C 316.348 67.197,314.164 76.713,311.335 82.311 C 308.710 87.508,308.863 89.514,312.255 94.328 L 314.248 97.157 311.381 96.828 C 305.899 96.200,305.288 92.491,308.370 78.555 C 312.341 60.603,310.807 57.476,295.500 52.315 L 291.500 50.967 297.750 51.389 C 302.079 51.681,305.342 52.597,308.363 54.367 M296.833 61.750 C 301.377 65.622,296.571 70.517,287.827 70.922 C 285.852 71.014,280.000 65.450,280.000 63.482 C 280.000 60.502,293.712 59.091,296.833 61.750 M343.393 63.516 C 345.150 64.350,347.381 66.375,348.350 68.016 C 350.497 71.650,349.970 71.732,345.215 68.500 C 341.191 65.766,333.596 65.075,329.814 67.100 C 328.245 67.940,327.935 67.915,328.503 66.996 C 330.798 63.282,338.907 61.387,343.393 63.516 M164.398 139.340 C 164.857 149.275,166.274 153.000,169.596 153.000 C 172.683 153.000,171.624 155.033,166.988 158.008 C 158.856 163.226,158.884 168.792,167.068 174.043 C 169.864 175.838,173.356 178.485,174.826 179.925 C 176.297 181.364,184.813 187.861,193.750 194.360 C 202.688 200.860,210.000 206.349,210.000 206.557 C 210.000 207.386,206.228 205.446,201.000 201.930 C 172.405 182.694,164.994 179.315,161.704 184.012 C 160.466 185.779,160.215 183.383,159.628 164.262 C 159.262 152.293,158.539 132.375,158.024 120.000 C 157.508 107.625,156.887 89.850,156.644 80.500 L 156.201 63.500 160.072 96.500 C 162.201 114.650,164.148 133.928,164.398 139.340 M344.954 77.727 L 349.408 79.653 343.761 82.416 L 338.113 85.179 333.058 82.340 C 327.164 79.029,327.154 79.005,330.750 76.702 C 334.010 74.615,338.505 74.939,344.954 77.727 M258.806 91.338 C 258.523 94.235,255.685 96.422,220.717 120.692 C 199.936 135.116,183.163 146.545,183.444 146.090 C 183.725 145.636,187.228 142.628,191.228 139.406 C 195.227 136.184,205.433 127.462,213.906 120.024 C 222.379 112.586,231.666 104.475,234.544 102.000 C 237.422 99.525,243.754 93.971,248.615 89.657 L 257.454 81.814 258.283 85.011 C 258.738 86.770,258.974 89.617,258.806 91.338 M266.598 105.547 C 280.213 152.509,304.525 162.891,334.726 134.640 L 341.180 128.603 340.529 150.551 C 340.172 162.623,339.423 181.500,338.865 192.500 C 338.307 203.500,337.634 224.425,337.369 239.000 C 336.750 273.021,335.804 289.239,334.412 289.699 C 333.814 289.897,316.939 278.111,296.912 263.509 C 276.885 248.907,256.630 234.312,251.899 231.075 C 243.070 225.033,189.878 186.527,184.500 182.284 C 182.850 180.983,180.348 178.898,178.940 177.652 C 177.532 176.405,173.813 173.611,170.674 171.443 C 166.981 168.891,165.063 166.899,165.234 165.795 C 165.466 164.311,262.974 95.641,263.750 96.416 C 263.905 96.572,265.187 100.681,266.598 105.547 M290.531 99.050 C 291.860 101.201,306.416 112.066,308.754 112.653 C 311.908 113.445,318.155 111.582,324.838 107.858 C 327.774 106.222,331.310 104.452,332.697 103.925 L 335.217 102.967 333.201 106.233 C 329.241 112.650,316.713 120.692,309.087 121.715 C 302.008 122.665,295.528 116.317,290.237 103.250 C 288.404 98.724,288.600 95.926,290.531 99.050 M129.364 196.714 C 134.664 201.781,139.000 206.324,139.000 206.809 C 139.000 207.293,139.952 208.547,141.116 209.595 C 144.431 212.579,148.266 218.585,154.465 230.500 C 157.613 236.550,160.753 242.175,161.443 243.000 C 176.548 261.052,183.409 324.349,172.361 343.716 C 162.600 360.827,128.042 361.603,95.712 345.437 C 55.890 325.527,27.729 289.581,32.408 264.636 C 33.762 257.420,40.714 252.540,44.000 256.500 C 48.224 261.590,83.193 240.677,95.220 225.868 C 102.327 217.118,116.000 190.889,116.000 186.007 C 116.000 184.326,118.518 186.344,129.364 196.714 M182.860 195.159 C 190.912 200.197,198.334 205.034,199.354 205.909 C 200.374 206.784,203.611 208.850,206.549 210.500 C 209.487 212.150,214.953 215.663,218.695 218.307 C 225.777 223.309,253.173 241.170,307.241 276.033 C 327.220 288.916,338.893 297.032,338.740 297.937 C 338.387 300.024,334.638 300.627,314.000 301.917 C 303.825 302.553,289.200 303.499,281.500 304.020 C 262.081 305.333,240.546 306.757,220.500 308.055 C 211.150 308.661,198.566 309.538,192.535 310.004 C 186.504 310.470,181.209 310.629,180.768 310.357 C 178.532 308.975,182.148 308.241,194.215 307.629 C 201.522 307.258,213.350 306.537,220.500 306.026 C 227.650 305.515,241.150 304.608,250.500 304.010 C 259.850 303.412,273.125 302.510,280.000 302.005 C 286.875 301.499,301.500 300.544,312.500 299.880 C 323.500 299.217,333.345 298.379,334.378 298.018 C 335.798 297.521,323.946 289.390,285.878 264.743 C 199.973 209.124,196.221 206.690,185.215 199.461 C 179.322 195.589,172.738 191.344,170.585 190.027 L 166.670 187.633 167.312 218.566 C 167.757 240.020,167.637 248.960,166.921 247.739 C 164.841 244.193,164.399 186.000,166.452 186.000 C 167.424 186.000,174.808 190.122,182.860 195.159 M118.665 196.165 C 117.746 199.772,108.412 215.545,102.226 223.945 C 86.682 245.053,70.989 256.768,46.500 265.547 C 34.120 269.985,34.824 275.983,50.486 299.521 C 79.313 342.846,148.478 368.012,166.570 341.759 C 178.214 324.863,173.959 277.841,157.881 245.730 C 146.769 223.535,120.235 190.000,118.665 196.165 M221.000 214.687 C 221.000 215.381,215.150 211.052,214.359 209.772 C 213.973 209.148,215.310 209.897,217.329 211.437 C 219.348 212.977,221.000 214.440,221.000 214.687 M113.311 240.254 C 100.201 253.908,100.268 257.794,113.907 274.781 C 126.765 290.794,128.416 296.990,120.617 299.956 C 117.833 301.014,117.791 300.979,118.598 298.268 C 120.870 290.634,119.931 288.263,111.674 280.776 C 95.747 266.335,93.392 255.080,103.954 243.872 C 107.535 240.072,116.486 234.178,118.909 234.026 C 119.133 234.012,116.614 236.815,113.311 240.254 M139.599 245.105 C 138.139 254.235,136.604 255.509,125.396 256.895 C 117.362 257.887,117.576 257.985,117.706 253.387 C 117.870 247.605,122.556 244.132,133.500 241.680 C 139.585 240.317,140.301 240.718,139.599 245.105 M82.309 272.986 C 83.304 272.994,83.840 273.450,83.500 274.000 C 83.160 274.550,81.671 275.007,80.191 275.016 C 75.359 275.046,69.751 279.146,65.153 286.010 L 60.806 292.500 61.500 287.513 C 62.946 277.114,70.074 270.847,78.500 272.565 C 79.600 272.789,81.314 272.979,82.309 272.986 M91.595 287.261 C 93.094 288.761,84.596 299.041,80.956 300.131 C 77.454 301.181,68.000 300.600,68.000 299.336 C 68.000 298.322,77.210 288.506,79.360 287.228 C 81.391 286.020,90.378 286.045,91.595 287.261 M148.952 313.730 C 146.359 326.221,137.078 330.386,117.974 327.633 C 108.735 326.302,96.889 321.772,98.488 320.183 C 98.866 319.807,105.323 319.500,112.838 319.500 C 132.448 319.500,132.423 319.516,142.000 301.000 L 149.500 286.500 149.786 297.420 C 149.943 303.426,149.568 310.766,148.952 313.730 " stroke="none" fill="#FFFFFF" fill-rule="evenodd"></path></g></svg>