<svg id="svg" xmlns="http://www.w3.org/2000/svg" xmlns:xlink="http://www.w3.org/1999/xlink" width="400" height="249.23076923076923" viewBox="0, 0, 400,249.23076923076923"><g id="svgg"><path id="path0" d="M52.897 27.813 C 52.230 29.802,36.086 100.683,22.556 161.026 C 16.295 188.949,10.274 215.639,9.176 220.337 C 8.078 225.036,7.179 229.312,7.179 229.840 C 7.179 230.421,19.233 230.692,37.692 230.528 L 68.205 230.256 72.516 213.333 C 78.486 189.898,78.962 191.795,67.110 191.795 C 58.242 191.795,57.350 191.622,57.840 190.000 C 58.527 187.724,76.320 110.007,86.728 63.821 C 91.085 44.486,94.469 28.492,94.248 28.279 C 92.868 26.948,53.337 26.503,52.897 27.813 M124.194 30.513 C 123.636 32.628,115.799 67.590,106.777 108.205 C 97.755 148.821,88.039 192.372,85.187 204.986 C 82.334 217.600,80.000 228.562,80.000 229.345 C 80.000 231.773,118.650 231.410,119.357 228.974 C 119.643 227.987,124.998 203.894,131.256 175.435 C 137.515 146.975,142.850 123.475,143.112 123.212 C 143.375 122.950,143.595 132.850,143.601 145.214 C 143.607 157.577,143.898 169.423,144.248 171.538 L 144.884 175.385 160.397 175.385 L 175.911 175.385 189.238 149.764 C 208.432 112.862,208.190 112.516,197.008 160.843 C 195.269 168.358,193.846 174.713,193.846 174.966 C 193.846 175.218,203.868 175.300,216.117 175.148 L 238.388 174.872 253.430 107.179 C 261.702 69.949,269.178 36.718,270.043 33.333 C 270.907 29.949,271.540 27.156,271.448 27.127 C 271.357 27.098,259.433 27.328,244.950 27.640 L 218.618 28.205 196.869 64.615 C 184.907 84.641,174.487 101.701,173.714 102.527 C 172.521 103.802,172.290 99.068,172.189 71.245 C 172.124 53.214,171.964 38.000,171.833 37.436 C 171.702 36.872,171.524 34.218,171.438 31.538 L 171.282 26.667 148.245 26.667 L 125.207 26.667 124.194 30.513 M283.670 27.562 C 282.887 28.829,276.923 57.088,276.923 59.532 C 276.923 61.525,277.747 61.553,329.456 61.291 L 381.989 61.026 385.294 46.154 C 387.112 37.974,388.626 30.244,388.659 28.974 L 388.718 26.667 336.471 26.667 C 307.735 26.667,283.975 27.069,283.670 27.562 M272.471 77.179 C 272.019 79.000,255.077 154.607,251.326 171.538 L 250.474 175.385 269.761 175.385 L 289.047 175.385 291.112 166.410 C 292.247 161.474,295.382 147.173,298.077 134.629 L 302.977 111.822 336.805 111.552 L 370.633 111.282 374.883 93.077 L 379.132 74.872 326.087 74.872 L 273.043 74.872 272.471 77.179 M138.573 193.639 C 137.689 195.291,129.231 228.244,129.231 230.037 C 129.231 231.909,339.325 230.849,339.890 228.974 C 340.946 225.475,347.692 194.508,347.692 193.162 C 347.692 190.709,139.887 191.183,138.573 193.639 " stroke="none" fill="#FFFFFF" fill-rule="evenodd"></path></g></svg>