<?xml version="1.0" standalone="no"?>
<!DOCTYPE svg PUBLIC "-//W3C//DTD SVG 20010904//EN"
 "http://www.w3.org/TR/2001/REC-SVG-20010904/DTD/svg10.dtd">
<svg version="1.0" xmlns="http://www.w3.org/2000/svg"
 width="270.000000pt" height="300.000000pt" viewBox="0 0 270.000000 300.000000"
 preserveAspectRatio="xMidYMid meet">
<metadata>
Created by potrace 1.10, written by Peter Selinger 2001-2011
</metadata>
<g transform="translate(0.000000,300.000000) scale(0.100000,-0.100000)"
fill="#FFFFFF" stroke="none">
<path d="M2286 2855 c-68 -24 -96 -65 -96 -142 l0 -48 -336 -343 c-185 -188
-340 -340 -345 -336 -5 3 -9 135 -9 306 l0 300 25 29 c34 41 41 90 20 144 -30
80 -101 112 -170 79 -86 -40 -99 -178 -24 -245 l29 -25 6 -300 7 -299 -39 35
c-22 19 -83 77 -137 130 l-97 95 0 50 c0 113 -98 175 -205 131 -75 -32 -100
-140 -47 -209 34 -45 60 -57 125 -57 l52 0 125 -125 c68 -68 122 -126 120
-128 -3 -2 -184 -7 -402 -10 l-396 -6 -27 45 c-67 114 -213 138 -312 51 -74
-65 -91 -156 -47 -246 45 -90 140 -129 244 -101 50 13 115 74 126 115 l6 25
409 0 c225 0 409 -3 409 -8 0 -4 -89 -96 -198 -205 -195 -195 -198 -197 -240
-197 -94 0 -155 -55 -156 -141 -1 -54 20 -90 75 -127 59 -41 140 -19 193 51
15 20 20 41 19 82 l-1 54 193 198 c107 108 196 195 198 192 2 -2 7 -236 11
-521 l6 -516 -45 -22 c-107 -52 -164 -181 -130 -296 43 -147 210 -217 346
-146 129 67 175 217 104 338 -26 45 -88 97 -129 110 -11 4 -24 12 -28 18 -12
17 -10 1036 2 1036 5 0 198 -185 427 -410 l418 -411 0 -62 c0 -96 46 -158 131
-177 110 -25 218 70 201 176 -15 92 -91 149 -186 142 l-55 -5 -175 172 c-97
95 -293 288 -436 428 l-260 256 228 1 c125 0 227 -4 227 -8 0 -22 74 -82 112
-93 101 -27 208 56 208 161 0 51 -19 88 -64 128 -42 37 -94 49 -146 33 -38
-11 -88 -50 -106 -83 -8 -14 -39 -17 -221 -23 -134 -5 -213 -4 -213 2 0 5 149
162 331 349 l332 339 40 -3 c80 -7 146 45 154 122 12 106 -82 185 -181 151z"/>
</g>
</svg>
