<!DOCTYPE svg PUBLIC "-//W3C//DTD SVG 20010904//EN" "http://www.w3.org/TR/2001/REC-SVG-20010904/DTD/svg10.dtd">
<svg version="1.0" xmlns="http://www.w3.org/2000/svg" width="200px" height="200px" viewBox="0 0 2000 2000" preserveAspectRatio="xMidYMid meet">
<g id="layer102" fill="#fdfefd" stroke="none">
 <path d="M950 1342 c0 -219 -2 -401 -4 -403 -2 -2 -52 -3 -110 -1 l-106 3 0 275 0 274 -60 0 -60 0 0 -596 0 -596 253 4 252 3 63 29 c73 34 132 95 158 162 l17 44 93 0 94 0 0 60 0 60 -95 0 c-92 0 -95 1 -95 23 0 41 -47 122 -93 163 -39 35 -91 58 -174 80 -8 2 -13 22 -13 54 l0 50 235 0 235 0 0 60 0 60 -235 0 -235 0 0 295 0 295 -60 0 -60 0 0 -398z m0 -662 l0 -140 135 0 c152 0 153 -1 85 -69 -43 -43 -83 -51 -272 -58 l-168 -6 0 207 0 206 110 0 110 0 0 -140z m178 111 c20 -10 44 -27 53 -37 16 -19 49 -78 49 -89 0 -3 -36 -5 -80 -5 l-80 0 0 75 c0 45 4 75 10 75 6 0 27 -9 48 -19z"/>
 </g>
</svg>