<svg id="svg" version="1.1" xmlns="http://www.w3.org/2000/svg" xmlns:xlink="http://www.w3.org/1999/xlink" width="400" height="265.531914893617" viewBox="0, 0, 400,265.531914893617"><g id="svgg"><path id="path0" d="M293.617 12.864 C 284.255 14.111,257.064 17.524,233.191 20.448 C 209.319 23.372,171.404 28.025,148.936 30.788 C 126.468 33.552,92.544 37.682,73.549 39.966 C 29.010 45.323,23.577 48.726,24.031 70.979 C 24.245 81.444,26.568 93.859,27.152 87.660 L 27.473 84.255 28.908 87.660 C 29.749 89.655,29.955 85.018,29.407 76.457 C 27.748 50.564,27.553 50.656,102.456 41.764 C 129.892 38.507,171.106 33.513,194.043 30.666 C 339.943 12.560,330.522 11.737,334.271 42.908 C 335.588 53.865,328.285 52.515,326.715 41.512 C 324.322 24.736,311.287 18.167,303.618 29.871 C 299.869 35.593,304.765 48.403,310.059 46.722 C 312.450 45.963,313.191 46.610,313.191 49.455 C 313.191 52.760,312.854 52.918,310.213 50.847 C 307.620 48.813,307.491 48.842,309.217 51.064 C 310.308 52.468,311.329 54.383,311.486 55.319 C 311.917 57.878,313.191 58.726,313.191 56.454 C 313.191 55.362,314.149 54.660,315.319 54.894 C 317.358 55.301,317.720 52.886,316.373 47.872 C 316.028 46.585,316.652 45.197,317.761 44.789 C 320.369 43.828,320.276 54.400,317.648 57.734 C 316.055 59.756,316.680 59.963,321.489 59.010 C 324.649 58.385,327.904 57.872,328.723 57.872 C 329.543 57.872,330.213 56.723,330.213 55.319 C 330.213 53.425,332.205 52.766,337.926 52.766 C 346.636 52.766,348.763 55.298,345.321 61.569 C 344.124 63.749,342.908 66.960,342.617 68.706 C 341.914 72.936,336.662 81.702,334.831 81.702 C 334.029 81.702,332.102 82.974,330.547 84.529 C 328.327 86.749,328.262 87.171,330.243 86.497 C 333.830 85.277,339.008 91.740,337.713 95.820 C 336.971 98.159,337.268 98.772,338.711 97.880 C 340.250 96.929,340.226 97.623,338.615 100.646 C 336.654 104.324,336.715 104.474,339.296 102.345 C 343.852 98.586,342.558 102.820,337.021 109.787 C 334.213 113.321,331.932 116.682,331.953 117.255 C 332.003 118.643,337.877 111.335,343.085 103.404 C 345.390 99.894,347.517 97.021,347.812 97.021 C 349.010 97.021,346.676 108.268,344.986 110.638 C 343.597 112.586,343.877 112.545,346.164 110.464 C 347.814 108.963,349.352 106.453,349.582 104.885 C 349.812 103.317,350.683 102.247,351.518 102.506 C 353.638 103.166,354.001 108.785,352.343 115.269 C 351.571 118.284,351.447 120.682,352.066 120.599 C 357.596 119.856,356.919 121.705,350.638 124.497 C 338.490 129.898,328.362 130.508,324.359 126.078 C 320.131 121.398,318.218 102.128,321.982 102.128 C 323.297 102.128,325.724 99.839,327.376 97.043 C 329.479 93.484,329.702 92.218,328.120 92.825 C 326.877 93.302,324.350 92.581,322.504 91.223 C 319.387 88.929,319.360 88.672,322.128 87.599 C 326.386 85.948,325.802 84.296,320.861 84.011 C 318.089 83.851,317.023 84.441,317.785 85.713 C 318.426 86.783,317.686 86.634,316.140 85.380 C 313.651 83.363,313.437 83.558,314.273 87.083 C 316.096 94.764,315.740 97.767,312.939 98.336 C 310.596 98.812,310.205 97.556,310.575 90.730 C 310.923 84.298,310.285 81.918,307.588 79.574 C 302.945 75.541,301.277 75.828,301.277 80.662 C 301.277 82.899,299.690 86.538,297.752 88.748 L 294.227 92.766 295.056 80.851 C 295.785 70.369,295.646 69.587,293.900 74.346 C 291.365 81.254,290.379 82.156,284.701 82.762 C 281.233 83.131,280.686 82.847,282.570 81.656 C 284.525 80.420,284.057 80.046,280.526 80.026 C 278.007 80.012,275.439 80.820,274.819 81.822 C 274.119 82.956,271.104 83.207,266.844 82.487 C 262.055 81.678,260.342 81.892,261.150 83.199 C 261.827 84.295,261.387 84.715,260.085 84.216 C 258.864 83.747,256.903 84.905,255.727 86.788 C 253.797 89.878,254.006 90.213,257.858 90.213 C 260.206 90.213,262.702 90.213,263.404 90.213 C 264.106 90.213,264.681 89.511,264.681 88.652 C 264.681 85.920,266.781 84.875,267.662 87.170 C 268.128 88.385,266.691 90.752,264.468 92.429 C 262.244 94.106,260.426 94.676,260.426 93.696 C 260.426 92.717,258.465 91.915,256.070 91.915 C 253.391 91.915,252.150 92.621,252.847 93.749 C 253.632 95.018,251.438 95.236,245.714 94.457 C 232.994 92.725,231.531 92.092,232.746 88.849 C 233.667 86.388,233.425 86.285,231.120 88.158 C 229.493 89.480,226.646 89.916,223.993 89.250 C 221.262 88.565,219.574 88.850,219.574 89.996 C 219.574 91.195,217.018 91.507,212.340 90.879 C 205.652 89.981,191.874 91.047,152.340 95.524 C 134.101 97.589,132.668 97.814,129.362 99.127 C 124.053 101.236,112.079 102.226,113.167 100.466 C 113.759 99.507,113.432 98.723,112.441 98.723 C 109.253 98.723,110.511 95.273,115.319 90.833 C 118.642 87.764,119.090 86.802,116.863 87.517 C 107.844 90.415,104.535 90.563,107.782 87.924 C 110.782 85.485,110.782 85.380,107.782 84.686 C 105.596 84.180,106.439 83.472,110.638 82.286 L 116.596 80.602 109.362 79.430 C 101.994 78.236,100.322 75.708,104.255 71.709 C 105.972 69.964,105.396 69.789,101.277 70.800 C 96.854 71.886,96.453 71.710,98.283 69.487 C 100.696 66.557,99.499 64.681,95.218 64.681 C 91.254 64.681,89.365 59.630,93.245 59.405 C 95.017 59.302,94.492 58.768,91.915 58.051 C 89.574 57.400,87.564 55.945,87.447 54.817 C 87.330 53.689,87.138 52.000,87.021 51.064 C 86.904 50.128,85.997 49.362,85.006 49.362 C 84.015 49.362,83.673 50.121,84.247 51.050 C 84.820 51.978,83.408 54.620,81.107 56.920 C 78.485 59.542,77.657 61.402,78.888 61.906 C 79.968 62.348,78.553 62.847,75.745 63.014 C 70.704 63.314,70.693 63.336,74.894 64.681 L 79.149 66.044 74.894 66.274 L 70.638 66.504 74.894 68.936 C 78.280 70.872,78.520 71.381,76.070 71.429 C 74.376 71.462,73.464 72.255,74.043 73.191 C 74.621 74.128,74.092 74.970,72.866 75.063 C 71.641 75.157,72.553 75.846,74.894 76.596 C 78.691 77.812,78.463 77.977,72.766 78.128 C 65.464 78.322,63.967 81.615,71.064 81.872 L 75.745 82.041 71.489 83.404 C 69.149 84.154,68.383 84.855,69.787 84.963 C 72.057 85.137,72.057 85.342,69.787 86.809 C 67.798 88.094,68.267 88.464,71.915 88.485 C 77.885 88.518,78.013 91.247,72.098 92.378 C 68.712 93.025,66.433 92.045,62.883 88.413 C 58.402 83.829,54.708 85.006,55.900 90.638 C 56.049 91.340,55.213 91.927,54.043 91.941 C 52.386 91.961,52.399 92.274,54.100 93.354 C 57.188 95.313,54.770 100.426,50.757 100.426 C 48.471 100.426,47.604 101.370,48.022 103.404 C 48.359 105.043,47.458 107.316,46.019 108.457 C 44.237 109.870,44.082 110.547,45.532 110.584 C 49.474 110.684,47.796 115.746,43.830 115.719 C 40.733 115.698,40.489 115.377,42.553 114.043 C 44.735 112.632,44.673 112.389,42.128 112.366 C 40.489 112.352,39.149 111.529,39.149 110.538 C 39.149 109.546,38.332 109.240,37.334 109.857 C 36.335 110.474,35.938 111.399,36.452 111.913 C 36.965 112.426,35.750 114.264,33.751 115.997 C 30.753 118.598,30.610 119.149,32.931 119.149 C 34.610 119.149,35.745 120.522,35.745 122.553 C 35.745 124.444,34.610 125.957,33.191 125.957 C 31.787 125.957,30.638 126.723,30.638 127.660 C 30.638 128.596,29.336 129.362,27.745 129.362 C 25.481 129.362,25.299 129.810,26.910 131.421 C 28.521 133.031,28.131 133.984,25.123 135.794 C 22.927 137.114,22.555 137.715,24.255 137.192 C 29.324 135.635,27.639 140.812,22.310 143.171 C 17.421 145.335,16.943 148.956,21.152 151.927 C 22.329 152.758,21.538 154.333,18.929 156.356 L 14.880 159.495 21.810 160.603 C 30.408 161.978,32.194 164.471,26.455 167.086 C 23.414 168.471,22.368 169.990,23.025 172.062 C 23.681 174.127,22.806 175.415,20.178 176.249 C 16.573 177.393,16.538 177.565,19.487 179.721 C 22.426 181.870,22.372 182.089,18.466 183.869 C 14.106 185.856,11.947 194.012,15.764 194.080 C 16.923 194.101,15.957 195.616,13.617 197.447 L 9.362 200.775 17.346 200.813 C 27.431 200.861,28.981 203.240,21.786 207.627 C 16.014 211.146,16.750 211.735,26.383 211.303 C 28.255 211.219,28.830 211.578,27.660 212.100 C 26.489 212.622,25.532 214.039,25.532 215.248 C 25.532 216.457,23.043 218.013,20.000 218.705 C 14.888 219.868,14.766 220.046,18.398 221.046 C 20.560 221.641,22.283 222.702,22.228 223.404 C 22.173 224.106,22.128 225.830,22.128 227.234 C 22.128 228.878,20.461 229.797,17.447 229.813 C 13.799 229.834,13.330 230.204,15.319 231.489 C 16.723 232.397,19.641 233.151,21.803 233.165 C 24.304 233.182,25.297 233.896,24.535 235.129 C 23.675 236.521,25.133 236.730,29.709 235.872 C 33.740 235.115,35.700 235.291,35.046 236.349 C 34.478 237.268,36.246 238.511,38.975 239.111 C 42.282 239.837,44.273 241.542,44.947 244.224 C 48.741 259.344,59.581 263.212,88.037 259.599 C 100.000 258.080,127.787 254.635,149.787 251.943 C 171.787 249.251,209.319 244.625,233.191 241.663 C 342.777 228.068,348.819 227.548,346.101 231.946 C 345.490 232.934,345.823 233.213,346.853 232.576 C 347.870 231.948,349.182 232.212,349.770 233.164 C 350.362 234.122,349.275 234.894,347.334 234.894 C 345.407 234.894,343.830 235.660,343.830 236.596 C 343.830 237.532,347.189 238.298,351.294 238.298 C 361.055 238.298,365.774 232.457,362.466 224.470 C 361.326 221.717,360.721 219.137,361.122 218.736 C 362.484 217.374,369.361 219.962,369.531 221.901 C 369.625 222.962,370.242 221.915,370.904 219.574 C 372.724 213.136,369.416 206.310,363.472 204.236 C 359.215 202.752,358.751 202.118,360.851 200.661 C 362.580 199.462,362.775 198.630,361.457 198.087 C 358.605 196.910,360.695 190.685,363.572 191.789 C 364.884 192.293,365.957 191.857,365.957 190.820 C 365.957 189.784,364.809 188.936,363.404 188.936 C 361.968 188.936,360.738 187.261,360.592 185.106 C 360.175 178.947,359.950 178.067,357.794 174.154 C 354.907 168.917,355.247 165.179,358.723 163.925 C 360.362 163.334,363.818 161.384,366.404 159.592 C 372.145 155.614,381.231 156.904,382.533 161.883 C 383.620 166.039,386.762 165.986,390.599 161.746 C 393.287 158.775,393.377 157.749,391.374 152.914 C 390.128 149.905,388.998 145.941,388.862 144.106 C 388.618 140.791,383.847 136.170,380.668 136.170 C 379.754 136.170,379.472 136.636,380.041 137.204 C 382.527 139.690,373.330 146.077,366.383 146.688 L 359.149 147.324 359.149 140.737 C 359.149 135.581,359.889 133.956,362.553 133.259 C 366.572 132.208,366.752 130.763,363.632 124.596 C 360.712 118.826,358.544 107.277,360.348 107.104 C 368.709 106.300,371.489 103.572,369.481 98.145 C 368.782 96.255,368.569 89.114,369.008 82.275 L 369.806 69.841 363.324 62.580 C 355.612 53.943,351.322 51.205,345.367 51.124 C 341.173 51.067,340.855 50.417,339.176 38.447 C 337.129 23.860,333.851 18.452,324.143 13.642 C 316.326 9.768,316.763 9.779,293.617 12.864 M314.894 38.967 C 314.894 41.920,311.825 44.255,307.946 44.255 C 305.076 44.255,306.339 37.708,309.362 36.918 C 314.565 35.558,314.894 35.680,314.894 38.967 M356.883 72.807 C 357.977 73.503,359.195 76.746,359.589 80.015 L 360.306 85.957 360.579 79.675 C 360.931 71.560,364.255 69.262,364.255 77.134 C 364.255 86.478,362.311 94.267,360.637 91.627 C 359.559 89.927,359.195 89.892,359.175 91.489 C 359.118 96.112,355.781 93.257,354.202 87.234 C 350.296 72.333,350.209 71.489,352.581 71.515 C 353.853 71.530,355.789 72.111,356.883 72.807 M334.336 93.929 C 333.608 95.162,331.821 98.085,330.365 100.426 C 327.884 104.414,327.903 104.535,330.668 102.345 C 334.017 99.692,334.428 100.836,331.855 105.644 C 330.886 107.455,330.483 108.936,330.960 108.936 C 331.437 108.936,333.059 106.554,334.565 103.642 C 336.071 100.731,336.473 98.861,335.460 99.488 C 332.982 101.019,333.108 98.211,335.631 95.688 C 336.739 94.580,337.199 93.227,336.653 92.681 C 336.107 92.135,335.064 92.697,334.336 93.929 M304.681 96.296 C 304.681 97.467,302.963 97.923,300.400 97.433 C 294.105 96.230,293.357 93.478,299.452 93.943 C 302.328 94.162,304.681 95.221,304.681 96.296 M363.459 101.956 C 362.834 103.923,361.585 105.532,360.683 105.532 C 357.892 105.532,356.951 100.521,359.227 97.779 C 362.064 94.360,364.962 97.221,363.459 101.956 M156.596 102.780 C 156.596 103.139,154.681 103.799,152.340 104.246 C 150.000 104.694,148.085 104.400,148.085 103.594 C 148.085 102.787,150.000 102.128,152.340 102.128 C 154.681 102.128,156.596 102.421,156.596 102.780 M123.153 117.021 C 127.122 131.286,125.287 150.569,121.047 139.149 C 117.941 130.785,117.110 114.043,119.801 114.043 C 121.188 114.043,122.697 115.383,123.153 117.021 M93.617 119.202 C 93.617 120.168,92.468 121.399,91.064 121.938 C 89.660 122.477,88.511 123.601,88.511 124.437 C 88.511 125.273,89.660 125.957,91.064 125.957 C 94.260 125.957,94.420 129.160,91.284 130.364 C 89.603 131.009,89.189 133.372,89.803 138.821 C 90.995 149.396,85.958 149.690,84.196 139.149 C 83.531 135.170,82.292 131.472,81.442 130.932 C 80.055 130.049,81.608 125.847,85.641 119.574 C 87.287 117.015,93.617 116.720,93.617 119.202 M145.400 120.638 C 145.907 121.458,143.987 125.350,141.134 129.289 L 135.946 136.450 141.447 135.885 C 147.854 135.226,150.388 139.020,144.376 140.270 C 128.914 143.486,126.339 141.917,132.487 133.029 C 138.674 124.083,138.737 123.693,133.829 124.631 C 128.756 125.601,125.935 122.989,129.569 120.687 C 132.625 118.752,144.212 118.716,145.400 120.638 M75.006 124.315 C 82.371 128.257,76.768 141.277,67.706 141.277 C 65.614 141.277,64.681 142.589,64.681 145.532 C 64.681 150.432,60.257 151.422,58.978 146.809 C 55.582 134.568,55.982 124.515,59.894 123.768 C 67.171 122.379,71.693 122.542,75.006 124.315 M113.759 126.467 C 122.177 136.610,116.979 144.681,102.030 144.681 C 92.863 144.681,93.882 133.609,103.156 132.441 C 108.346 131.788,108.513 128.396,103.335 128.815 C 98.063 129.242,94.913 127.992,96.163 125.969 C 97.705 123.475,111.602 123.868,113.759 126.467 M308.682 132.370 C 308.135 134.460,306.929 136.170,306.002 136.170 C 305.075 136.170,304.782 134.959,305.350 133.478 C 305.918 131.997,306.383 129.546,306.383 128.031 C 306.383 126.257,306.969 125.863,308.029 126.923 C 308.935 127.828,309.229 130.280,308.682 132.370 M62.979 131.915 C 62.979 135.800,63.602 136.325,67.660 135.858 C 71.026 135.470,72.340 134.363,72.340 131.915 C 72.340 129.466,71.026 128.359,67.660 127.972 C 63.602 127.505,62.979 128.030,62.979 131.915 M297.021 133.640 C 297.021 135.851,295.695 137.210,293.191 137.565 C 289.394 138.105,287.637 133.356,290.555 130.438 C 292.813 128.180,297.021 130.264,297.021 133.640 M264.956 133.181 C 265.433 132.005,266.523 131.476,267.379 132.005 C 269.789 133.494,269.222 138.139,266.226 141.450 C 263.718 144.221,263.772 144.377,266.949 143.546 C 269.975 142.755,270.325 143.368,269.901 148.710 C 269.636 152.044,270.100 154.998,270.931 155.275 C 271.762 155.552,272.641 160.908,272.885 167.178 C 273.333 178.674,274.862 182.906,277.200 179.122 C 279.033 176.156,299.205 173.604,300.206 176.211 C 300.630 177.318,299.704 179.368,298.148 180.767 C 296.592 182.166,294.553 184.521,293.617 186.000 C 292.349 188.005,288.123 188.890,277.039 189.474 C 268.857 189.905,262.550 189.630,263.024 188.863 C 263.498 188.097,263.107 186.988,262.155 186.400 C 259.403 184.699,260.139 182.448,263.830 181.277 C 265.702 180.682,267.234 179.329,267.234 178.268 C 267.234 176.896,266.645 176.929,265.191 178.383 C 264.068 179.506,262.000 180.426,260.596 180.426 C 258.610 180.426,258.496 179.972,260.085 178.383 C 262.994 175.474,262.611 173.539,259.371 174.782 C 257.044 175.675,256.719 174.738,257.288 168.771 C 257.659 164.883,257.368 161.702,256.641 161.702 C 254.790 161.702,255.036 151.169,256.957 148.130 C 257.830 146.750,257.936 145.219,257.194 144.726 C 256.451 144.233,255.356 141.835,254.760 139.396 C 253.537 134.394,259.866 129.622,262.683 133.422 C 263.695 134.788,264.332 134.720,264.956 133.181 M105.106 135.641 C 100.629 136.811,101.526 139.574,106.383 139.574 C 109.031 139.574,110.638 138.610,110.638 137.021 C 110.638 134.402,110.234 134.301,105.106 135.641 M258.039 135.720 C 256.201 137.557,256.976 139.803,259.013 138.545 C 260.344 137.722,260.651 138.235,259.938 140.092 C 259.352 141.620,259.796 143.400,260.925 144.048 C 262.055 144.696,262.431 144.620,261.762 143.879 C 261.093 143.138,261.270 141.176,262.156 139.521 C 263.764 136.517,260.372 133.386,258.039 135.720 M355.415 144.686 C 354.911 151.646,353.490 156.507,350.955 159.936 C 346.235 166.320,346.273 169.450,351.150 176.010 C 354.762 180.868,356.137 203.357,353.783 219.074 C 353.007 224.253,350.638 218.541,350.638 211.491 C 350.638 201.224,347.673 185.290,343.640 173.891 C 341.872 168.893,340.426 162.656,340.426 160.031 C 340.426 157.406,339.317 154.832,337.961 154.312 C 331.810 151.952,329.868 143.325,335.224 142.149 C 338.963 141.327,340.031 140.245,339.553 137.763 C 338.993 134.855,339.930 134.468,347.536 134.468 L 356.154 134.468 355.415 144.686 M239.094 137.961 C 238.475 138.963,240.307 140.629,243.249 141.739 C 248.520 143.729,251.652 158.298,246.809 158.298 C 245.872 158.298,245.298 157.340,245.532 156.170 C 245.771 154.974,243.909 153.807,241.277 153.504 C 238.702 153.208,236.584 152.059,236.570 150.951 C 236.553 149.644,236.022 149.760,235.058 151.282 C 232.543 155.253,229.460 151.878,231.729 147.638 C 233.196 144.896,233.195 143.831,231.724 143.341 C 230.569 142.956,231.340 141.377,233.608 139.486 C 237.816 135.976,240.841 135.135,239.094 137.961 M304.362 140.025 C 305.039 143.542,300.125 145.913,297.532 143.319 C 294.939 140.726,297.309 135.812,300.826 136.489 C 302.457 136.803,304.048 138.394,304.362 140.025 M293.947 142.374 C 294.560 143.972,293.926 145.980,292.468 147.055 C 291.063 148.089,290.245 149.919,290.649 151.120 C 291.873 154.754,289.677 158.312,286.873 157.236 C 283.929 156.106,283.337 150.556,285.985 148.919 C 286.937 148.331,287.252 147.100,286.685 146.184 C 285.095 143.610,287.248 139.574,290.213 139.574 C 291.676 139.574,293.356 140.834,293.947 142.374 M186.962 147.229 C 187.566 152.552,189.722 154.861,194.043 154.813 C 196.207 154.790,196.177 154.466,193.844 152.690 C 189.379 149.290,194.140 145.985,200.304 148.205 C 204.309 149.647,231.103 193.271,229.178 195.216 C 229.003 195.393,226.962 195.893,224.643 196.327 C 222.323 196.762,218.309 197.660,215.722 198.323 C 211.551 199.393,210.813 198.936,209.191 194.286 C 207.435 189.248,207.068 189.082,199.852 190.071 C 193.613 190.927,192.340 190.629,192.340 188.316 C 192.340 186.785,191.191 185.532,189.787 185.532 C 188.383 185.532,187.234 184.766,187.234 183.830 C 187.234 182.894,186.085 182.128,184.681 182.128 C 183.277 182.128,182.128 182.939,182.128 183.930 C 182.128 184.922,182.807 185.313,183.637 184.800 C 186.863 182.806,189.186 188.443,186.320 191.309 C 182.784 194.845,180.594 194.770,179.191 191.064 C 178.570 189.426,177.063 187.073,175.840 185.836 C 174.617 184.599,173.617 182.064,173.617 180.203 C 173.617 178.343,172.962 177.225,172.161 177.720 C 171.360 178.215,171.078 176.666,171.535 174.277 C 171.992 171.888,173.477 169.506,174.836 168.985 C 176.442 168.369,176.668 167.642,175.481 166.909 C 174.189 166.110,174.244 162.975,175.668 156.185 C 176.775 150.908,178.227 146.927,178.894 147.340 C 179.562 147.752,179.690 146.490,179.178 144.534 C 178.402 141.565,178.920 141.072,182.316 141.553 C 185.405 141.989,186.522 143.354,186.962 147.229 M310.638 147.234 C 310.638 149.081,309.298 150.850,307.660 151.165 C 305.429 151.595,304.681 150.608,304.681 147.234 C 304.681 143.860,305.429 142.873,307.660 143.303 C 309.298 143.618,310.638 145.387,310.638 147.234 M301.277 149.687 C 301.277 153.978,298.358 155.714,295.346 153.214 C 292.247 150.641,293.935 146.383,298.054 146.383 C 300.109 146.383,301.277 147.580,301.277 149.687 M130.072 153.616 C 130.758 152.930,132.066 153.703,132.978 155.333 C 133.891 156.964,135.557 158.286,136.680 158.272 C 137.930 158.256,137.732 157.605,136.170 156.596 C 133.988 155.186,134.050 154.942,136.596 154.920 C 138.234 154.905,139.574 154.291,139.574 153.554 C 139.574 150.243,150.094 151.443,150.986 154.855 C 151.481 156.749,152.400 158.298,153.028 158.298 C 155.547 158.298,153.981 175.030,151.171 178.135 C 148.457 181.133,148.536 181.536,152.596 185.444 C 155.887 188.611,156.669 190.699,155.936 194.364 C 155.321 197.437,155.694 199.149,156.979 199.149 C 160.225 199.149,156.008 202.534,151.737 203.357 C 148.853 203.912,146.811 202.418,142.956 196.934 C 130.751 179.571,127.444 181.073,131.948 201.933 C 133.127 207.392,126.637 208.433,120.680 203.740 C 114.436 198.820,113.507 187.234,119.357 187.234 C 121.955 187.234,122.526 186.636,121.390 185.106 C 120.360 183.718,120.887 180.907,122.907 177.021 C 125.785 171.484,126.075 171.330,127.014 174.833 C 127.925 178.228,128.285 178.341,130.649 175.977 C 132.092 174.534,134.694 173.724,136.431 174.178 C 138.703 174.772,139.877 173.855,140.616 170.910 C 143.726 158.521,127.746 156.916,124.104 169.252 C 122.734 173.893,120.679 177.114,118.771 177.613 C 117.064 178.060,115.191 178.684,114.611 179.000 C 112.144 180.342,112.390 167.184,114.869 165.127 C 116.287 163.950,117.447 161.631,117.447 159.974 C 117.447 156.193,122.614 154.035,124.656 156.964 C 125.616 158.339,125.733 157.577,124.972 154.907 C 123.941 151.286,124.135 150.972,126.294 152.765 C 127.685 153.919,129.385 154.303,130.072 153.616 M244.836 156.170 C 244.261 158.885,247.255 163.329,248.952 162.280 C 250.019 161.621,250.231 161.998,249.478 163.216 C 248.785 164.338,249.192 166.429,250.382 167.864 C 252.075 169.904,252.094 170.752,250.471 171.755 C 249.329 172.461,248.868 174.271,249.446 175.777 C 251.336 180.702,248.227 183.980,244.356 181.144 C 241.593 179.120,241.507 178.723,243.830 178.723 C 245.357 178.723,246.963 178.149,247.397 177.447 C 247.831 176.745,246.489 176.170,244.415 176.170 C 241.333 176.170,240.668 177.102,240.771 181.277 C 240.840 184.085,239.737 187.320,238.320 188.466 C 236.154 190.218,236.495 190.497,240.464 190.219 C 243.408 190.013,244.881 189.103,244.380 187.797 C 243.889 186.518,244.544 186.076,246.066 186.660 C 247.434 187.185,249.818 186.572,251.362 185.297 C 253.767 183.312,254.009 183.346,253.044 185.532 C 252.424 186.936,251.467 189.340,250.916 190.874 C 250.365 192.409,248.258 193.662,246.234 193.661 C 244.210 193.659,240.871 194.206,238.816 194.875 C 235.885 195.830,235.063 195.413,235.007 192.940 C 234.967 191.206,234.595 184.897,234.181 178.920 C 233.546 169.752,234.009 167.223,237.140 162.750 C 241.608 156.365,245.499 153.039,244.836 156.170 M107.234 157.193 C 107.234 161.220,103.111 168.128,101.156 167.378 C 99.829 166.868,99.167 165.766,99.685 164.928 C 100.203 164.090,99.399 163.404,97.898 163.404 C 96.244 163.404,95.367 164.577,95.670 166.383 C 95.959 168.105,95.093 169.381,93.617 169.407 C 92.213 169.431,90.115 170.046,88.956 170.772 C 87.480 171.696,87.174 171.240,87.937 169.254 C 88.813 166.970,88.312 166.642,85.374 167.575 C 82.239 168.570,81.773 168.116,82.083 164.367 C 82.472 159.674,84.882 158.754,88.170 162.043 C 89.759 163.631,90.213 163.631,90.213 162.043 C 90.213 160.919,91.024 160.000,92.015 160.000 C 93.007 160.000,93.333 160.957,92.740 162.128 C 92.147 163.298,92.791 162.874,94.170 161.186 C 96.056 158.878,96.899 158.667,97.571 160.335 C 98.289 162.117,98.790 162.086,100.124 160.178 C 101.477 158.241,101.935 158.398,102.609 161.030 C 103.309 163.763,103.465 163.671,103.632 160.426 C 103.783 157.498,107.234 154.400,107.234 157.193 M190.062 159.047 C 189.443 160.660,188.936 163.539,188.936 165.444 C 188.936 168.221,188.092 168.746,184.681 168.094 C 181.016 167.393,180.429 167.897,180.452 171.725 C 180.466 174.170,181.040 175.404,181.728 174.468 C 184.065 171.288,187.234 171.900,187.234 175.532 C 187.234 178.675,187.931 179.010,192.553 178.085 C 195.479 177.500,198.461 177.021,199.180 177.021 C 199.899 177.021,200.992 175.704,201.610 174.094 C 202.228 172.485,202.148 171.753,201.433 172.467 C 200.718 173.182,198.121 169.795,195.661 164.940 C 192.226 158.163,190.926 156.795,190.062 159.047 M148.085 160.751 C 148.085 162.100,148.851 163.677,149.787 164.255 C 150.723 164.834,151.489 163.730,151.489 161.803 C 151.489 159.875,150.723 158.298,149.787 158.298 C 148.851 158.298,148.085 159.402,148.085 160.751 M77.347 164.609 C 79.594 170.464,71.205 175.849,68.201 170.480 C 67.333 168.929,66.186 167.851,65.652 168.085 C 63.419 169.064,61.277 168.389,61.277 166.708 C 61.277 165.717,62.234 165.481,63.404 166.184 C 65.070 167.185,65.093 166.919,63.507 164.956 C 61.782 162.824,62.598 162.448,68.992 162.430 C 73.578 162.417,76.832 163.266,77.347 164.609 M203.617 166.464 C 202.121 168.885,205.072 171.812,207.497 170.313 C 208.762 169.531,209.272 168.040,208.628 166.999 C 207.261 164.787,204.815 164.526,203.617 166.464 M242.718 166.543 C 242.129 167.496,242.476 168.788,243.490 169.415 C 246.107 171.032,247.795 168.816,245.611 166.632 C 244.388 165.409,243.436 165.380,242.718 166.543 M89.505 178.113 C 88.609 180.447,88.859 180.554,91.020 178.759 C 93.295 176.872,93.476 177.572,92.522 184.539 C 91.693 190.582,92.053 192.956,94.037 194.531 C 97.485 197.266,99.205 212.766,96.062 212.766 C 94.828 212.766,93.345 212.000,92.766 211.064 C 92.187 210.128,92.580 209.362,93.638 209.362 C 94.789 209.362,94.537 208.336,93.009 206.809 C 89.464 203.263,88.738 203.594,89.278 208.511 C 90.309 217.907,83.933 213.426,82.617 203.830 C 79.871 183.800,79.864 182.657,82.486 180.481 C 83.907 179.302,84.649 177.659,84.136 176.828 C 83.623 175.998,84.862 175.319,86.890 175.319 C 89.609 175.319,90.296 176.053,89.505 178.113 M176.408 176.500 C 174.491 178.417,175.240 180.426,177.872 180.426 C 179.277 180.426,180.426 179.705,180.426 178.824 C 180.426 176.678,177.768 175.140,176.408 176.500 M216.489 185.638 C 216.899 186.867,218.239 188.207,219.468 188.617 C 220.745 189.043,221.383 188.404,220.957 187.128 C 220.548 185.899,219.207 184.559,217.979 184.149 C 216.702 183.723,216.064 184.362,216.489 185.638 M171.064 188.936 C 170.485 189.872,171.206 190.638,172.666 190.638 C 175.800 190.638,176.297 193.981,173.191 194.177 C 171.501 194.284,171.503 194.488,173.202 195.173 C 174.378 195.648,174.985 196.611,174.550 197.314 C 174.115 198.018,175.984 198.461,178.702 198.299 C 184.687 197.943,184.703 201.266,178.723 202.777 C 167.580 205.593,164.748 204.694,165.949 198.723 C 167.824 189.410,168.672 187.234,170.428 187.234 C 171.356 187.234,171.642 188.000,171.064 188.936 M119.175 195.603 C 119.211 196.989,122.466 201.894,122.657 200.851 C 122.743 200.383,123.052 198.787,123.342 197.305 C 123.633 195.823,122.808 194.610,121.510 194.610 C 120.211 194.610,119.161 195.057,119.175 195.603 M304.208 201.277 C 309.306 207.865,306.188 215.452,297.954 216.493 C 293.521 217.054,289.466 207.469,291.687 201.681 C 292.873 198.593,301.906 198.301,304.208 201.277 M287.678 202.979 C 287.689 204.149,288.172 207.979,288.752 211.489 C 290.122 219.775,286.356 220.140,279.979 212.340 L 275.455 206.809 276.528 213.191 C 277.594 219.534,275.384 222.120,273.374 216.882 C 271.950 213.173,272.070 202.553,273.536 202.553 C 274.194 202.553,277.229 204.974,280.282 207.933 L 285.832 213.312 284.821 207.082 C 284.156 202.986,284.469 200.851,285.735 200.851 C 286.793 200.851,287.668 201.809,287.678 202.979 M296.170 208.511 C 296.170 214.982,297.271 215.677,302.018 212.206 C 304.582 210.331,304.773 209.310,303.134 206.248 C 299.982 200.358,296.170 201.596,296.170 208.511 M267.199 210.996 C 271.613 219.648,271.605 219.683,265.360 218.434 C 262.237 217.809,259.609 218.141,258.926 219.247 C 255.835 224.247,243.405 223.662,243.381 218.515 C 243.368 215.821,242.896 211.894,242.331 209.787 C 241.720 207.507,242.066 205.957,243.186 205.957 C 244.220 205.957,245.556 209.021,246.155 212.766 C 247.699 222.425,254.351 222.717,256.135 213.204 C 258.290 201.721,262.082 200.964,267.199 210.996 M238.961 210.336 C 239.526 211.808,239.260 214.372,238.371 216.033 C 237.290 218.053,237.405 219.703,238.718 221.016 C 241.938 224.236,236.524 223.441,232.900 220.162 C 229.976 217.515,229.787 217.567,229.787 221.013 C 229.787 223.030,229.102 224.681,228.264 224.681 C 226.695 224.681,224.672 211.216,225.897 208.936 C 227.237 206.445,237.906 207.588,238.961 210.336 M260.426 208.882 C 260.426 209.929,259.961 211.997,259.392 213.478 C 258.823 214.961,259.229 216.170,260.297 216.170 C 263.157 216.170,264.583 211.136,262.354 208.907 C 260.947 207.500,260.426 207.494,260.426 208.882 M220.426 211.064 C 219.847 212.000,218.270 212.766,216.921 212.766 C 215.572 212.766,214.468 213.532,214.468 214.468 C 214.468 215.404,216.000 216.170,217.872 216.170 C 219.745 216.170,221.277 216.936,221.277 217.872 C 221.277 218.809,219.745 219.574,217.872 219.574 C 216.000 219.574,214.468 220.340,214.468 221.277 C 214.468 222.213,216.957 222.990,220.000 223.005 C 224.198 223.025,224.916 223.429,222.979 224.681 C 215.137 229.749,204.315 216.678,210.900 210.093 C 212.470 208.523,221.431 209.437,220.426 211.064 M205.106 212.766 C 204.528 213.702,202.312 214.468,200.183 214.468 C 194.961 214.468,194.179 215.580,195.618 220.959 C 196.892 225.725,202.500 227.395,203.830 223.404 C 204.246 222.156,203.073 221.277,200.993 221.277 C 199.043 221.277,197.447 220.511,197.447 219.574 C 197.447 218.638,199.745 217.872,202.553 217.872 C 207.036 217.872,207.660 218.467,207.660 222.737 C 207.660 230.873,193.437 229.787,192.650 221.591 C 192.352 218.487,193.020 214.849,194.135 213.506 C 196.410 210.764,206.776 210.065,205.106 212.766 M229.159 213.583 C 229.740 215.098,231.309 216.108,232.645 215.828 C 236.569 215.006,236.076 211.962,231.923 211.372 C 228.997 210.956,228.349 211.474,229.159 213.583 M187.872 218.085 C 190.483 231.140,187.677 233.331,179.950 224.271 L 175.219 218.723 176.310 225.106 C 177.495 232.043,174.732 234.167,172.988 227.660 C 169.550 214.833,172.721 211.545,180.375 220.000 L 185.382 225.532 184.383 219.149 C 183.166 211.368,186.336 210.402,187.872 218.085 M161.702 221.988 C 161.702 225.188,162.167 229.018,162.735 230.499 C 164.359 234.729,159.409 233.743,154.894 228.936 C 149.680 223.387,148.511 223.569,149.424 229.787 C 150.420 236.574,147.106 236.382,145.745 229.574 C 143.162 216.662,146.342 214.138,153.891 223.109 L 158.298 228.346 158.298 222.258 C 158.298 218.910,159.064 216.170,160.000 216.170 C 160.936 216.170,161.702 218.788,161.702 221.988 M168.511 221.137 C 168.511 223.869,168.976 227.316,169.544 228.797 C 170.222 230.564,169.637 231.489,167.842 231.489 C 165.735 231.489,165.106 229.730,165.106 223.830 C 165.106 219.617,165.872 216.170,166.809 216.170 C 167.745 216.170,168.511 218.405,168.511 221.137 M142.258 227.660 C 142.972 232.129,142.762 234.894,141.707 234.894 C 139.971 234.894,137.872 227.137,137.872 220.723 C 137.872 214.822,140.996 219.763,142.258 227.660 M134.468 221.277 C 134.468 222.213,132.553 222.979,130.213 222.979 C 127.872 222.979,125.957 223.745,125.957 224.681 C 125.957 225.617,127.872 226.383,130.213 226.383 C 132.553 226.383,134.468 227.149,134.468 228.085 C 134.468 229.021,132.459 229.787,130.004 229.787 C 126.376 229.787,125.910 230.232,127.514 232.165 C 128.599 233.472,130.991 234.149,132.829 233.668 C 134.676 233.185,136.170 233.644,136.170 234.695 C 136.170 235.740,133.524 236.596,130.290 236.596 C 124.174 236.596,120.487 229.116,123.164 222.140 C 124.259 219.288,134.468 218.508,134.468 221.277 M114.043 229.037 C 114.043 233.759,114.702 234.894,117.447 234.894 C 119.319 234.894,120.851 235.660,120.851 236.596 C 120.851 239.391,112.790 238.521,111.671 235.605 C 109.964 231.157,110.470 220.972,112.340 222.128 C 113.277 222.706,114.043 225.815,114.043 229.037 M353.374 227.283 C 353.576 228.660,352.732 229.787,351.498 229.787 C 350.078 229.787,349.588 228.513,350.163 226.315 C 351.127 222.629,352.763 223.122,353.374 227.283 M99.353 228.511 C 100.925 234.378,100.617 240.000,98.723 240.000 C 97.787 240.000,97.021 238.085,97.021 235.745 C 97.021 229.823,94.258 230.411,93.021 236.596 C 91.710 243.152,89.736 243.045,85.172 236.170 L 81.499 230.638 82.587 236.170 C 83.702 241.840,81.241 243.986,79.331 239.010 C 75.206 228.259,81.114 222.123,86.172 231.904 C 89.206 237.771,89.426 237.624,92.570 227.660 C 93.903 223.435,98.135 223.966,99.353 228.511 M75.559 236.285 C 76.187 241.556,75.855 243.444,74.387 242.961 C 73.262 242.590,72.103 238.517,71.813 233.909 C 71.159 223.525,74.274 225.501,75.559 236.285 " stroke="none" fill="#FFFFFF" fill-rule="evenodd"></path></g></svg>