<?xml version="1.0" standalone="no"?>
<!DOCTYPE svg PUBLIC "-//W3C//DTD SVG 20010904//EN"
 "http://www.w3.org/TR/2001/REC-SVG-20010904/DTD/svg10.dtd">
<svg version="1.0" xmlns="http://www.w3.org/2000/svg"
 width="300.000000pt" height="300.000000pt" viewBox="0 0 300.000000 300.000000"
 preserveAspectRatio="xMidYMid meet">
<metadata>
Created by potrace 1.10, written by Peter Selinger 2001-2011
</metadata>
<g transform="translate(0.000000,300.000000) scale(0.100000,-0.100000)"
fill="#FFFFFF" stroke="none">
<path d="M1776 2648 c-3 -156 -9 -325 -13 -375 -6 -90 -5 -93 16 -93 19 0 21
5 21 58 0 33 3 114 7 180 l6 122 220 0 220 0 -6 -180 c-6 -171 -5 -180 12
-180 20 0 23 38 36 500 4 107 9 207 11 223 5 24 3 27 -20 27 l-26 0 0 -159 c0
-88 -3 -166 -6 -175 -5 -14 -35 -16 -225 -16 l-219 0 7 175 c6 171 6 175 -14
175 -19 0 -20 -9 -27 -282z"/>
<path d="M2505 2683 c-4 -137 -10 -305 -13 -375 l-7 -128 177 0 c152 0 178 2
178 15 0 13 -24 15 -157 15 l-156 0 7 228 c3 125 9 287 13 360 6 128 6 132
-14 132 -20 0 -21 -7 -28 -247z"/>
<path d="M1014 2797 c-108 -46 -200 -131 -244 -224 -29 -63 -30 -73 -28 -167
3 -100 3 -101 29 -104 32 -4 42 9 58 78 7 30 24 77 37 103 13 27 24 53 24 58
0 29 55 90 107 120 52 31 66 34 138 34 61 0 92 -6 133 -23 30 -13 68 -22 85
-20 27 2 33 8 35 31 4 33 -13 57 -39 57 -10 0 -33 9 -51 19 -49 28 -156 61
-197 60 -20 0 -59 -10 -87 -22z"/>
<path d="M1065 2623 c-27 -14 -52 -30 -54 -36 -2 -5 -18 -26 -37 -46 -35 -40
-55 -85 -74 -174 -18 -78 4 -149 69 -219 13 -15 23 -30 20 -32 -2 -3 -31 6
-64 20 -73 29 -111 30 -150 3 -47 -31 -146 -76 -186 -83 -63 -11 -74 -48 -23
-81 13 -8 24 -22 24 -29 0 -7 7 -19 15 -26 11 -9 13 -23 9 -51 -4 -22 -2 -44
4 -51 5 -7 26 -58 45 -113 51 -147 82 -221 109 -264 10 -16 9 -24 -7 -41 -14
-16 -20 -43 -25 -118 -4 -54 -12 -113 -18 -132 -30 -100 -47 -150 -69 -200
-29 -67 -36 -82 -58 -140 -10 -25 -25 -63 -35 -85 -10 -22 -21 -47 -24 -55 -4
-8 -15 -28 -25 -45 -11 -16 -20 -40 -20 -52 -1 -12 -5 -24 -10 -28 -11 -6 -41
-64 -41 -78 0 -5 -7 -15 -17 -22 -19 -14 -11 -45 12 -45 8 0 20 11 25 25 6 15
17 25 30 25 14 0 20 7 20 23 0 13 11 34 25 47 14 13 25 29 25 36 0 6 7 17 15
24 8 7 15 21 15 31 0 24 17 56 53 95 35 39 147 267 147 300 0 14 7 36 16 49
16 24 28 92 41 228 3 37 9 70 13 72 4 3 34 -4 66 -15 33 -11 72 -20 87 -20 15
0 30 -7 34 -15 7 -20 55 -45 84 -45 13 0 40 12 60 26 42 29 250 103 292 104
22 0 27 -4 27 -25 0 -14 -7 -42 -15 -62 -8 -19 -15 -50 -15 -67 0 -17 -9 -56
-21 -86 -12 -30 -23 -65 -26 -78 -3 -12 -9 -25 -14 -28 -5 -3 -9 -12 -9 -20 0
-8 -11 -32 -25 -54 -14 -22 -25 -42 -25 -45 0 -9 69 -5 75 5 12 20 25 9 25
-20 0 -17 6 -33 13 -35 8 -4 12 -22 11 -52 -1 -25 2 -59 6 -75 5 -16 5 -41 1
-56 -5 -15 -14 -47 -22 -72 -7 -25 -19 -52 -26 -61 -7 -8 -13 -31 -13 -50 0
-19 -5 -40 -11 -46 -7 -7 -2 -15 16 -27 55 -36 15 -79 -98 -107 -41 -10 -51
-9 -64 4 -14 13 -13 18 7 45 19 26 21 37 15 78 -4 27 -15 59 -26 72 -36 46
-72 137 -78 198 -4 34 -13 69 -20 78 -17 20 -1 43 21 30 7 -5 42 -9 78 -10 36
0 93 -4 126 -8 77 -11 90 3 46 47 -29 29 -35 30 -136 35 -100 4 -106 6 -106
26 0 11 -6 33 -14 48 -8 15 -17 42 -21 60 -12 53 -31 68 -91 68 -59 0 -72 -10
-45 -34 15 -14 17 -28 13 -96 -5 -89 6 -130 44 -155 20 -13 22 -19 13 -43 -15
-38 -3 -101 31 -169 17 -32 30 -63 30 -69 0 -6 7 -17 15 -24 19 -16 19 -50 0
-86 -32 -61 -6 -133 61 -175 39 -24 95 -20 127 9 16 14 21 13 67 -8 47 -22 50
-22 75 -6 14 9 28 23 29 29 2 7 9 30 16 53 14 48 5 75 -38 112 -22 18 -25 24
-12 32 8 5 11 12 7 16 -3 4 -13 2 -20 -4 -8 -7 -17 -9 -20 -6 -4 4 14 27 38
52 81 82 100 143 69 222 -16 40 -16 41 9 60 28 22 63 118 54 147 -3 10 -13 37
-22 61 -15 42 -15 44 6 61 13 10 19 23 15 29 -9 15 -39 15 -53 1 -8 -8 -17 -7
-32 3 -23 14 -27 28 -11 44 6 6 12 41 13 77 2 37 8 72 15 79 24 24 2 78 -32
78 -9 0 -16 5 -16 10 0 6 24 10 54 10 58 0 76 11 56 35 -34 41 -352 -10 -481
-76 -21 -10 -43 -19 -49 -19 -6 0 -10 25 -10 60 0 33 2 60 5 60 3 0 19 -10 35
-22 24 -17 32 -19 45 -8 8 7 15 23 15 36 0 17 6 24 18 24 25 0 56 35 49 54 -3
8 -22 16 -44 18 -32 3 -40 8 -54 38 l-17 35 39 7 c48 9 59 15 59 34 0 25 -47
40 -82 26 -17 -6 -34 -9 -38 -7 -15 9 -40 74 -34 88 3 9 1 24 -5 35 -10 18 -6
21 52 32 95 18 102 18 103 -7 1 -13 5 -28 11 -35 5 -7 10 -57 12 -112 1 -66 7
-106 17 -121 8 -13 14 -27 12 -31 -1 -5 4 -24 12 -41 10 -23 22 -33 37 -33 29
0 31 35 4 84 -11 19 -17 43 -14 55 3 13 1 21 -7 21 -10 0 -11 17 -7 69 4 52 2
72 -8 81 -7 6 -16 29 -20 51 -4 22 -14 43 -22 46 -21 8 76 34 100 27 23 -7 6
-31 -25 -36 -33 -5 -32 -25 1 -42 42 -22 74 -20 100 8 30 32 24 59 -14 66
l-30 6 33 19 c17 11 32 25 32 32 0 16 40 37 50 26 4 -4 12 -64 19 -133 6 -69
18 -154 27 -190 9 -36 18 -80 21 -98 4 -23 13 -36 29 -42 25 -10 33 -30 12
-30 -9 0 -9 -3 -1 -11 20 -20 43 -2 43 34 0 18 -4 37 -9 42 -14 16 -21 174 -8
183 34 21 40 41 27 87 -8 27 -20 47 -31 50 -25 8 -33 44 -26 117 7 80 -4 108
-42 108 -16 0 -33 -4 -36 -10 -13 -22 -25 -8 -25 30 0 22 -4 40 -10 40 -13 0
-61 -21 -90 -41 -25 -17 -119 -43 -198 -55 -47 -7 -188 14 -175 27 4 4 32 3
60 -3 87 -17 193 26 193 80 0 10 5 23 11 29 7 7 11 43 11 86 -1 64 2 79 23
108 45 60 25 150 -43 195 -88 60 -150 67 -227 27z m141 -76 c55 -38 66 -72 41
-120 -8 -16 -12 -43 -10 -65 14 -110 -17 -150 -128 -167 -41 -6 -49 -4 -69 17
-34 36 -50 85 -50 153 0 98 49 195 98 195 15 0 34 5 42 10 21 14 23 13 76 -23z
m-312 -486 c12 -10 47 -29 79 -41 57 -24 58 -24 240 -11 100 6 186 16 191 21
12 12 26 13 26 3 0 -10 -40 -29 -125 -60 -51 -18 -98 -26 -175 -30 -58 -3
-111 -10 -117 -15 -9 -7 -21 -5 -39 8 -89 64 -157 82 -184 49 -12 -14 -9 -18
53 -73 21 -20 99 -134 94 -139 -11 -10 -127 66 -198 130 -38 34 -69 65 -69 68
0 4 26 17 58 30 31 12 73 35 92 50 42 34 48 35 74 10z m592 4 c-11 -8 -24 -15
-30 -15 -5 0 -1 7 10 15 10 8 24 14 29 14 6 0 1 -6 -9 -14z m-700 -318 c50
-33 140 -79 182 -91 20 -7 22 -13 22 -79 0 -40 5 -90 10 -112 5 -22 7 -41 5
-44 -3 -2 -32 2 -65 9 -63 13 -110 51 -110 88 0 9 -14 46 -31 82 -48 102 -78
180 -69 180 4 0 30 -15 56 -33z m714 -741 c0 -16 -21 -56 -30 -56 -14 0 -13
33 2 48 12 12 28 16 28 8z m7 -123 c-4 -3 -10 -3 -14 0 -3 4 0 7 7 7 7 0 10
-3 7 -7z"/>
<path d="M1950 2340 l0 -110 68 2 67 2 -63 3 -63 4 3 47 3 47 55 6 55 6 -52 1
-53 2 0 45 0 44 58 4 57 3 -67 2 -68 2 0 -110z"/>
<path d="M2496 1990 c-8 -148 -2 -172 53 -204 67 -39 214 -21 248 30 16 25 42
288 29 301 -14 14 -19 -14 -26 -139 -8 -130 -8 -133 -38 -159 -53 -48 -167
-50 -220 -4 -26 23 -27 25 -25 127 2 56 6 120 9 141 4 28 2 37 -9 37 -11 0
-16 -26 -21 -130z"/>
<path d="M2008 2035 c-11 -102 -10 -161 2 -149 7 7 10 52 8 115 l-3 104 -7
-70z"/>
<path d="M1115 1832 c-3 -3 -5 -23 -5 -44 0 -39 0 -39 38 -36 31 3 37 7 40 28
2 21 -4 28 -32 41 -20 9 -38 14 -41 11z"/>
<path d="M1377 1732 c-20 -22 -13 -32 20 -32 13 0 23 -4 23 -10 0 -5 -6 -10
-13 -10 -21 0 -50 -37 -44 -55 8 -19 30 -19 95 0 58 18 72 48 28 59 -18 4 -26
14 -28 34 -2 22 -9 28 -34 30 -20 2 -36 -3 -47 -16z"/>
<path d="M1966 1645 c-4 -58 -5 -109 -1 -115 3 -5 27 -10 52 -10 55 0 51 11
-4 13 l-38 2 4 108 c2 59 1 107 -1 107 -3 0 -8 -47 -12 -105z"/>
<path d="M1417 1583 c-4 -3 -7 -12 -7 -20 0 -9 15 -13 50 -13 43 0 50 3 50 20
0 17 -7 20 -43 20 -24 0 -47 -3 -50 -7z"/>
<path d="M2560 1513 c0 -37 -3 -119 -7 -180 -4 -76 -3 -113 4 -113 23 0 38
350 16 357 -10 4 -13 -13 -13 -64z"/>
<path d="M2675 1495 l-90 -84 96 -96 c53 -52 102 -95 110 -95 7 0 -29 43 -81
96 l-95 96 83 77 c45 43 82 81 82 85 0 15 -21 0 -105 -79z"/>
<path d="M2008 1336 c-11 -113 -10 -162 2 -150 7 7 10 54 8 120 l-3 109 -7
-79z"/>
<path d="M1951 1024 c-63 -53 -59 -153 9 -186 39 -20 86 -23 124 -8 24 9 26
15 26 65 l0 55 -37 -2 c-37 -1 -37 -1 -5 -5 31 -4 32 -6 32 -48 0 -54 -22 -70
-87 -62 -64 7 -93 38 -93 98 0 75 30 102 117 110 l68 6 -62 1 c-53 2 -66 -2
-92 -24z"/>
<path d="M2589 908 c-40 -68 -85 -144 -100 -171 -33 -55 -34 -57 -14 -57 8 0
15 4 15 9 0 5 18 41 41 80 l41 72 86 -3 86 -3 31 -77 c17 -44 36 -78 44 -78 7
0 11 6 8 13 -79 196 -143 337 -153 337 -8 0 -46 -55 -85 -122z m110 34 c13
-31 25 -63 28 -69 4 -10 -13 -13 -66 -13 -39 0 -71 3 -71 7 0 10 73 133 80
133 3 0 16 -26 29 -58z"/>
<path d="M1956 669 c-3 -17 -6 -66 -6 -109 0 -62 3 -79 16 -84 25 -10 94 -7
94 4 0 6 -23 10 -51 10 l-50 0 3 48 3 47 55 6 55 6 -52 1 -53 2 0 45 0 44 58
4 57 3 -61 2 c-61 2 -62 2 -68 -29z"/>
<path d="M975 475 c-74 -17 -123 -33 -243 -79 -51 -20 -100 -36 -110 -36 -17
0 -176 -59 -219 -82 -29 -15 -38 -6 -22 21 19 29 5 36 -33 18 -94 -45 -143
-144 -82 -167 44 -17 79 -11 160 29 233 114 440 189 569 206 28 4 68 9 90 12
42 5 75 27 75 49 0 17 -63 44 -99 43 -14 -1 -53 -7 -86 -14z"/>
<path d="M2620 473 c-28 -10 -60 -46 -60 -68 0 -31 24 -59 93 -111 75 -57 87
-71 87 -101 0 -39 -40 -56 -120 -51 -74 4 -94 -7 -34 -18 53 -10 132 1 154 21
25 23 26 76 3 103 -10 10 -46 41 -81 67 -81 60 -94 86 -62 120 20 22 32 25 87
25 40 0 62 4 58 10 -6 10 -99 13 -125 3z"/>
<path d="M1956 319 c-3 -17 -5 -68 -4 -113 l1 -81 10 108 9 107 37 0 c20 0 42
-5 49 -12 28 -28 1 -78 -44 -78 -13 0 -24 -3 -24 -8 0 -13 71 -114 77 -108 3
3 -8 24 -25 47 l-31 42 32 21 c21 14 33 31 35 49 5 42 -13 57 -68 57 -45 0
-48 -2 -54 -31z"/>
</g>
</svg>
