<?xml version="1.0" standalone="no"?>
<!DOCTYPE svg PUBLIC "-//W3C//DTD SVG 20010904//EN"
 "http://www.w3.org/TR/2001/REC-SVG-20010904/DTD/svg10.dtd">
<svg version="1.0" xmlns="http://www.w3.org/2000/svg"
 width="900.000000pt" height="900.000000pt" viewBox="0 0 900.000000 900.000000"
 preserveAspectRatio="xMidYMid meet">
<metadata>
Created by potrace 1.10, written by Peter Selinger 2001-2011
</metadata>
<g transform="translate(0.000000,900.000000) scale(0.100000,-0.100000)"
fill="#FFFFFF" stroke="none">
<path d="M665 8990 c3 -5 -4 -14 -17 -19 -13 -5 -43 -17 -68 -26 -134 -51
-195 -91 -314 -205 -79 -76 -168 -200 -199 -277 -9 -24 -24 -60 -32 -80 -8
-21 -19 -70 -25 -110 -7 -49 -10 -1250 -10 -3770 1 -3879 -1 -3722 40 -3843
20 -58 90 -191 123 -234 56 -73 161 -177 219 -217 31 -21 59 -39 62 -39 3 0
28 -14 56 -30 28 -17 56 -30 61 -30 6 0 25 -6 42 -14 32 -15 53 -19 187 -36
114 -16 7466 -9 7505 7 17 6 53 19 80 27 57 18 160 69 220 108 44 28 206 192
247 248 59 82 103 182 123 278 4 18 13 36 21 39 21 8 21 7513 0 7513 -8 0 -18
19 -24 48 -31 143 -100 261 -226 390 -56 57 -125 119 -153 138 -65 42 -195
104 -218 104 -24 0 -56 20 -50 31 4 5 -1408 9 -3825 9 -2541 0 -3829 -3 -3825
-10z m7660 -103 c148 -53 243 -114 355 -229 69 -71 95 -105 137 -190 29 -57
60 -125 70 -153 17 -47 18 -245 20 -3738 2 -2137 -1 -3716 -6 -3755 -10 -80
-26 -126 -78 -240 -18 -38 -121 -180 -152 -210 -61 -59 -136 -111 -219 -153
-54 -27 -104 -49 -112 -49 -8 0 -33 -7 -55 -15 -35 -12 -550 -14 -3785 -14
-3622 -1 -3747 0 -3815 18 -99 26 -203 77 -281 136 -46 35 -174 166 -174 178
0 4 -11 23 -24 40 -33 44 -95 180 -107 236 -6 25 -14 75 -19 111 -11 82 -11
7228 0 7330 20 188 102 352 243 485 47 44 98 90 114 102 70 52 227 116 308
126 17 2 1718 4 3780 3 3562 -1 3753 -2 3800 -19z"/>
<path d="M4945 7709 c-90 -14 -268 -49 -345 -68 -19 -5 -87 -25 -150 -46 -63
-20 -128 -40 -145 -45 -16 -4 -43 -13 -60 -19 -117 -42 -211 -70 -280 -85 -44
-10 -105 -24 -135 -31 -30 -8 -89 -17 -130 -21 -41 -4 -91 -9 -110 -10 -252
-24 -595 41 -840 159 -92 44 -240 136 -240 149 0 4 -7 8 -15 8 -8 0 -15 -6
-15 -12 0 -7 -6 -25 -14 -40 -8 -15 -17 -40 -21 -57 -4 -17 -11 -33 -16 -36
-5 -4 -9 -16 -9 -28 0 -12 -7 -31 -15 -41 -26 -34 -19 -79 17 -112 67 -62 180
-128 288 -169 25 -9 59 -23 75 -30 56 -23 171 -51 280 -66 39 -6 86 -15 105
-20 41 -12 379 -6 495 9 162 20 223 35 499 123 49 16 95 29 102 29 7 0 25 6
41 14 33 16 200 68 293 90 167 40 303 57 465 56 201 -1 297 -14 453 -61 34
-10 67 -19 72 -19 6 0 33 -11 62 -25 28 -14 60 -25 69 -25 10 0 20 -4 23 -9 4
-5 27 -19 54 -32 49 -23 86 -48 135 -86 34 -28 56 -29 63 -5 8 24 19 51 38 95
9 21 16 44 16 51 0 7 9 34 21 60 24 56 20 74 -29 113 -40 32 -168 113 -179
113 -3 0 -30 11 -58 25 -29 13 -72 27 -96 31 -24 4 -53 11 -64 17 -26 13 -130
36 -225 49 -103 13 -402 18 -475 7z"/>
<path d="M1744 7305 c-7 -19 -14 -39 -14 -45 0 -6 -4 -18 -9 -28 -38 -70 -51
-113 -51 -168 0 -55 4 -65 53 -138 28 -43 57 -87 63 -98 18 -30 186 -197 214
-213 14 -7 41 -28 60 -45 19 -18 44 -36 55 -41 11 -5 47 -24 80 -43 72 -42
180 -96 215 -107 14 -4 77 -26 140 -48 63 -23 127 -41 141 -41 14 0 29 -3 33
-7 16 -17 178 -45 318 -55 136 -10 148 -13 153 -32 10 -36 68 -170 80 -186 6
-8 21 -35 33 -59 38 -80 212 -283 253 -296 11 -4 19 -15 19 -25 0 -15 -11 -20
-57 -27 -84 -12 -747 -8 -818 4 -79 14 -244 42 -320 53 -63 9 -129 25 -180 42
-16 6 -48 13 -70 17 -45 8 -87 22 -195 61 -41 16 -86 31 -100 35 -14 3 -34 10
-45 15 -11 4 -60 25 -110 46 -49 20 -97 40 -105 44 -38 17 -198 102 -230 122
-14 8 -59 28 -100 44 -41 15 -82 33 -90 39 -8 7 -44 27 -80 46 -76 40 -142 82
-160 104 -7 8 -18 15 -24 15 -7 0 -32 20 -56 45 -47 48 -69 56 -71 28 -1 -10
0 -99 1 -198 2 -209 4 -215 100 -262 8 -4 48 -26 88 -50 40 -24 75 -43 79 -43
4 0 14 -6 22 -13 20 -17 145 -65 191 -73 19 -4 46 -13 60 -20 31 -16 179 -84
342 -158 32 -15 72 -29 90 -33 18 -3 38 -9 43 -14 6 -4 40 -17 75 -28 246 -76
313 -94 429 -112 36 -6 73 -15 82 -20 10 -5 41 -9 69 -9 28 0 61 -5 72 -11 73
-39 985 -39 1081 0 16 6 59 11 97 11 38 0 71 4 74 9 3 5 40 12 82 16 43 4 95
13 117 21 78 28 132 12 78 -23 -16 -10 -89 -58 -163 -108 -73 -49 -140 -94
-149 -100 -218 -133 -287 -172 -467 -267 -206 -108 -403 -204 -522 -253 -36
-15 -87 -37 -115 -50 -27 -12 -68 -30 -90 -38 -22 -9 -92 -36 -156 -61 -64
-25 -121 -46 -128 -46 -7 0 -25 -6 -39 -14 -15 -8 -74 -28 -132 -46 -58 -18
-116 -37 -130 -42 -14 -6 -47 -16 -75 -24 -27 -7 -99 -27 -160 -44 -108 -31
-134 -38 -245 -60 -85 -17 -240 -50 -288 -60 -23 -6 -69 -10 -102 -10 -142 0
-48 -50 141 -75 217 -28 606 -14 834 30 127 24 189 36 240 44 28 4 63 13 78
19 16 7 40 12 53 12 14 0 49 7 77 16 29 8 75 21 102 29 126 35 263 77 293 90
18 8 41 15 51 15 19 0 159 52 196 72 11 6 33 15 50 19 49 12 96 30 158 61 31
15 65 28 75 28 9 0 26 7 36 15 11 8 26 15 33 15 40 0 599 284 797 405 54 33
110 66 124 74 15 8 62 38 105 68 43 29 80 53 82 53 5 0 133 88 180 123 111 86
274 218 296 241 20 22 33 26 79 25 107 0 420 -49 500 -78 14 -5 54 -16 90 -26
36 -9 77 -23 92 -31 14 -8 35 -14 45 -14 11 0 28 -7 39 -15 10 -8 25 -15 33
-15 12 0 59 -20 206 -90 33 -16 67 -31 75 -34 8 -4 31 -16 50 -27 19 -12 57
-33 83 -47 33 -17 46 -29 43 -39 -3 -8 -6 -16 -6 -18 0 -4 -207 -105 -215
-105 -4 0 -27 -10 -53 -21 -47 -22 -106 -43 -222 -80 -36 -12 -74 -25 -85 -30
-11 -5 -45 -13 -75 -18 -30 -5 -73 -14 -95 -20 -104 -27 -185 -41 -235 -41
-30 0 -83 -4 -117 -9 -70 -10 -276 8 -333 30 -19 7 -56 28 -81 46 -78 55 -84
119 -23 231 42 75 29 82 -43 21 -204 -172 -268 -304 -194 -406 123 -169 442
-192 967 -70 33 8 70 19 82 26 11 6 31 11 44 11 13 0 32 6 43 13 11 7 45 21
75 31 59 19 78 27 182 75 37 17 70 31 74 31 3 0 26 14 51 30 65 44 69 42 68
-48 0 -72 2 -80 32 -117 41 -53 125 -95 229 -116 122 -25 442 -8 569 30 80 24
104 22 144 -15 21 -18 42 -34 46 -34 4 0 24 -15 44 -32 57 -50 82 -70 129
-102 23 -16 42 -31 42 -35 0 -3 20 -19 45 -34 25 -16 45 -33 45 -38 0 -5 12
-15 28 -23 15 -8 42 -27 59 -43 97 -84 116 -90 138 -38 8 19 22 51 30 70 8 20
15 44 15 54 0 10 7 35 15 54 8 20 15 45 15 56 0 13 -44 53 -132 123 -192 151
-195 154 -182 175 6 9 24 21 40 25 66 19 360 185 404 227 8 9 36 32 62 51 44
34 110 118 102 131 -4 7 -65 -21 -87 -39 -27 -23 -248 -130 -332 -161 -49 -18
-111 -42 -137 -52 -26 -11 -54 -19 -62 -19 -9 0 -24 -4 -34 -9 -25 -13 -115
-41 -130 -41 -7 0 -56 35 -110 78 -98 79 -378 289 -410 307 -22 13 -79 52
-162 110 -36 25 -68 45 -72 45 -4 0 -27 14 -51 30 -25 17 -49 30 -55 30 -5 0
-14 6 -20 13 -10 11 -218 117 -297 151 -16 7 -51 23 -76 35 -25 11 -53 21 -62
21 -9 0 -19 5 -22 10 -3 6 -15 10 -26 10 -10 0 -27 4 -37 9 -34 18 -139 50
-217 66 -44 9 -93 20 -110 25 -16 4 -57 11 -90 15 -109 11 -125 16 -125 36 0
10 6 22 13 26 21 14 124 147 162 211 6 9 22 35 36 57 14 22 40 75 59 118 l33
79 46 -6 c25 -4 62 -13 81 -21 19 -7 80 -30 135 -50 136 -50 331 -148 439
-220 49 -33 97 -65 108 -71 11 -6 32 -23 47 -38 15 -14 32 -26 37 -26 5 0 64
-52 131 -115 67 -63 123 -115 126 -115 13 0 107 232 107 264 0 33 -109 155
-191 215 -19 14 -43 33 -54 42 -34 31 -167 122 -250 172 -108 65 -101 61 -185
102 -41 20 -88 42 -103 50 -16 8 -34 15 -40 15 -7 0 -23 6 -37 13 -30 16 -95
38 -175 62 -33 10 -80 24 -104 31 -25 8 -52 14 -62 14 -19 0 -45 35 -55 76
-21 81 -132 191 -249 247 -62 29 -96 41 -220 78 -110 32 -515 60 -585 40 -19
-5 -94 -14 -167 -19 -73 -6 -137 -13 -143 -17 -25 -16 14 -32 89 -38 80 -6
240 -53 327 -96 82 -40 196 -176 164 -196 -5 -3 -66 -10 -136 -16 -71 -6 -136
-15 -146 -20 -9 -5 -36 -9 -60 -9 -24 -1 -63 -5 -88 -10 -100 -22 -150 -32
-260 -51 -63 -11 -129 -23 -146 -26 -28 -4 -34 0 -64 44 -110 163 -245 284
-384 343 -69 30 -90 34 -165 34 -74 0 -93 -3 -138 -27 -75 -39 -115 -78 -150
-144 -28 -54 -60 -168 -65 -238 -2 -24 -7 -29 -23 -27 -11 2 -49 7 -85 11 -87
10 -233 41 -245 52 -5 5 -18 9 -30 9 -11 0 -51 12 -90 26 -38 14 -81 29 -95
33 -14 5 -51 20 -81 35 -31 14 -59 26 -64 26 -4 0 -27 14 -52 30 -24 17 -50
30 -57 30 -8 0 -19 7 -26 15 -7 8 -17 15 -22 15 -22 0 -169 120 -253 205 -122
125 -160 173 -205 263 -26 51 -46 53 -66 7z m3208 -945 c-4 -35 -68 -163 -120
-240 -40 -58 -62 -87 -137 -180 -11 -14 -56 -62 -99 -107 l-80 -83 -67 0 c-38
0 -94 -7 -126 -15 -104 -27 -150 -17 -120 28 17 27 26 75 34 187 5 87 -6 181
-34 277 -8 29 -12 56 -9 62 3 5 23 11 43 15 87 13 165 26 278 46 148 26 267
38 365 36 74 -1 75 -1 72 -26z m1575 -1322 c15 -7 32 -18 36 -25 4 -7 12 -13
17 -13 10 0 106 -65 213 -143 39 -30 82 -59 95 -66 12 -6 22 -18 22 -25 0 -18
-83 -28 -140 -16 -25 5 -63 9 -85 10 -79 1 -175 46 -219 104 -34 45 -36 120
-5 160 23 30 28 31 66 14z"/>
<path d="M1589 3316 c-36 -18 -46 -58 -23 -89 26 -35 42 -40 70 -22 67 43 22
146 -47 111z"/>
<path d="M1804 3322 c-25 -16 -34 -49 -23 -81 16 -47 45 -58 75 -30 35 33 34
96 -2 109 -30 12 -36 12 -50 2z"/>
<path d="M3235 3312 c-37 -9 -47 -41 -75 -252 -6 -47 -15 -112 -20 -145 -5
-33 -14 -98 -20 -145 -6 -47 -17 -114 -25 -150 -7 -36 -16 -100 -19 -143 -9
-121 -3 -117 -161 -117 -161 0 -165 2 -164 93 0 34 4 85 10 112 5 28 13 82 19
122 9 74 29 116 61 133 10 6 52 10 94 10 106 0 111 4 119 96 5 59 4 79 -6 85
-7 5 -67 9 -133 9 -106 0 -126 -3 -165 -22 -55 -28 -84 -81 -100 -183 -6 -38
-15 -95 -20 -125 -10 -65 -38 -268 -49 -360 -7 -57 -5 -70 14 -105 20 -37 25
-40 76 -47 30 -3 154 -6 276 -7 l222 -1 12 43 c11 41 30 167 48 312 11 89 28
197 46 300 8 44 16 98 18 120 6 56 47 310 53 330 11 29 -51 50 -111 37z"/>
<path d="M704 3292 c-14 -8 -35 -136 -27 -158 4 -12 48 -14 287 -12 l281 3 3
25 c1 14 7 49 14 78 10 45 9 55 -3 63 -17 10 -539 12 -555 1z"/>
<path d="M7634 3292 c-6 -4 -14 -40 -17 -79 l-6 -73 73 0 74 0 7 46 c3 26 12
58 18 71 9 19 8 26 -4 34 -17 10 -129 12 -145 1z"/>
<path d="M1427 2999 c-38 -20 -74 -66 -81 -104 -2 -11 -11 -54 -20 -95 -15
-72 -28 -153 -47 -290 -5 -36 -12 -111 -15 -168 -6 -103 -6 -104 21 -132 25
-26 33 -28 118 -31 51 -2 160 -4 243 -3 148 0 152 0 186 26 40 31 78 118 78
179 0 22 6 65 14 97 8 31 20 98 26 147 6 50 16 124 22 165 18 133 10 183 -36
211 -28 17 -52 19 -251 19 -200 -1 -223 -3 -258 -21z m370 -191 c27 -25 29
-55 8 -135 -8 -31 -15 -79 -15 -105 0 -69 -26 -159 -55 -188 -24 -23 -33 -25
-141 -28 -156 -5 -164 0 -164 106 1 42 7 104 15 137 8 33 15 79 15 103 0 24 7
56 15 72 27 53 48 60 179 60 109 0 122 -2 143 -22z"/>
<path d="M2134 3012 c-12 -7 -35 -123 -55 -272 -16 -129 -24 -182 -49 -335
-13 -77 -24 -160 -24 -185 l-1 -45 61 -3 c41 -2 64 1 71 10 5 7 17 56 26 108
10 52 22 122 28 155 6 33 14 98 19 145 12 121 33 200 62 221 18 15 46 19 142
21 135 3 128 -1 145 96 16 87 11 92 -96 92 -96 0 -134 -15 -158 -60 -20 -39
-35 -38 -35 3 0 18 -5 38 -12 45 -13 13 -106 16 -124 4z"/>
<path d="M3540 3007 c-103 -48 -123 -97 -169 -422 -6 -38 -13 -86 -16 -105
-25 -158 -28 -199 -15 -232 27 -68 27 -68 312 -68 291 0 262 -10 274 93 10 88
13 87 -206 87 l-187 0 -18 33 c-17 32 -17 39 -1 153 26 180 38 225 66 257 24
27 30 28 137 34 110 6 111 6 137 -20 28 -29 36 -93 14 -115 -8 -8 -48 -12
-114 -12 -74 0 -105 -4 -113 -14 -16 -20 -31 -148 -19 -163 8 -10 56 -13 178
-13 122 0 170 3 178 13 16 19 50 223 59 354 5 80 -8 113 -58 139 -36 18 -400
19 -439 1z"/>
<path d="M4186 3005 c-8 -9 -17 -30 -20 -48 -11 -74 -27 -197 -35 -262 -4 -38
-13 -99 -20 -135 -33 -184 -41 -231 -46 -301 -6 -87 -5 -89 71 -89 58 0 70 20
83 133 6 49 15 103 20 120 5 18 15 75 21 127 23 183 27 205 39 231 20 40 46
48 174 51 91 2 120 6 127 18 6 8 9 49 8 90 l-3 75 -75 3 c-41 2 -85 1 -97 -3
-27 -6 -82 -61 -94 -94 -15 -37 -31 -7 -23 43 4 27 2 41 -7 47 -23 15 -106 10
-123 -6z"/>
<path d="M4734 3005 c-3 -8 -4 -38 -1 -67 5 -51 40 -369 51 -473 3 -27 11 -99
16 -158 6 -59 13 -114 17 -122 7 -20 215 -22 230 -2 9 12 18 32 73 172 17 44
42 104 55 132 14 29 27 65 31 80 7 28 14 46 47 111 9 19 17 38 17 44 0 5 6 24
14 41 61 139 97 238 90 248 -3 5 -33 9 -68 9 -48 0 -66 -4 -77 -17 -19 -23
-49 -89 -49 -108 0 -7 -6 -26 -14 -42 -21 -41 -76 -188 -76 -200 0 -6 -7 -24
-15 -40 -8 -15 -24 -55 -36 -88 -12 -33 -28 -73 -34 -90 -11 -27 -31 -87 -42
-124 -19 -70 -70 295 -80 574 -3 60 -9 115 -15 122 -15 19 -127 17 -134 -2z"/>
<path d="M5626 3005 c-53 -19 -102 -69 -121 -124 -17 -47 -20 -62 -55 -301
-11 -74 -25 -166 -31 -205 -13 -88 -5 -146 25 -174 22 -21 28 -21 282 -19
l259 3 14 56 c8 30 11 67 8 81 l-7 27 -191 3 c-190 3 -191 3 -211 28 -18 22
-19 33 -13 85 4 33 10 94 15 135 4 41 13 88 19 103 6 16 11 39 11 52 0 14 14
35 35 54 35 30 38 31 140 31 101 0 105 -1 130 -27 27 -30 33 -78 13 -106 -11
-13 -34 -17 -117 -19 l-104 -3 -18 -55 c-10 -30 -19 -70 -19 -88 l0 -32 193 2
192 3 10 112 c6 61 13 115 18 119 4 4 7 55 7 114 0 116 -3 122 -63 148 -41 18
-370 15 -421 -3z"/>
<path d="M6265 3008 c-28 -81 -35 -109 -35 -141 0 -40 -24 -211 -40 -287 -6
-25 -15 -88 -20 -140 -6 -52 -15 -111 -21 -130 -6 -19 -9 -57 -7 -85 l3 -50
56 -3 c70 -4 89 12 89 72 0 24 7 63 15 87 9 24 15 50 14 59 -4 27 13 175 21
185 4 6 10 46 13 90 10 150 38 175 205 175 127 0 117 -9 125 107 6 73 6 73
-99 73 l-75 0 -49 -46 c-28 -26 -50 -55 -50 -65 0 -10 -5 -21 -11 -24 -7 -5
-8 12 -3 55 5 48 4 64 -7 71 -22 14 -119 11 -124 -3z"/>
<path d="M6910 2992 c-48 -24 -58 -34 -82 -84 -33 -70 -65 -228 -73 -368 -1
-25 -5 -52 -8 -60 -6 -16 -14 -72 -23 -157 -7 -63 18 -131 51 -138 11 -2 127
-6 257 -8 178 -3 242 -1 255 8 13 10 17 29 17 86 l1 74 -186 5 c-224 6 -229 8
-229 99 0 31 5 85 11 121 5 36 13 92 18 125 8 69 20 95 57 124 23 18 41 21
126 21 85 0 104 -3 129 -21 25 -18 29 -27 29 -69 0 -61 -9 -66 -110 -64 -118
2 -125 -4 -133 -131 l-2 -40 177 -3 c161 -2 178 -1 187 15 5 10 12 69 16 130
5 76 12 116 21 124 23 19 18 158 -6 187 -37 44 -76 52 -267 51 -172 0 -180 -1
-233 -27z"/>
<path d="M7593 3008 c-5 -7 -16 -56 -23 -108 -6 -52 -16 -120 -21 -150 -5 -30
-15 -106 -23 -167 -8 -62 -19 -121 -24 -130 -6 -10 -13 -65 -17 -123 -4 -58
-12 -111 -18 -119 -18 -22 27 -51 78 -51 66 0 75 18 95 175 5 39 14 108 20
155 6 47 17 105 25 130 15 47 35 220 38 330 l2 65 -61 3 c-41 2 -64 -1 -71
-10z"/>
<path d="M7882 3003 c-17 -33 -33 -108 -43 -198 -5 -49 -14 -119 -19 -155 -35
-247 -46 -316 -51 -325 -15 -23 -21 -136 -9 -150 15 -18 88 -20 125 -3 22 10
25 17 25 64 0 29 4 55 9 58 4 3 12 52 16 108 4 56 13 118 20 138 7 19 16 69
19 110 13 163 40 190 194 190 57 0 112 -5 122 -10 44 -23 55 -98 26 -170 -8
-19 -19 -87 -25 -150 -11 -110 -22 -200 -37 -283 -9 -53 6 -67 72 -67 52 0 54
1 70 38 15 32 24 88 51 312 3 25 9 50 13 55 4 6 11 60 15 120 5 66 13 118 21
130 21 30 17 102 -7 142 -35 56 -60 63 -225 63 l-146 0 -38 -41 c-40 -44 -60
-45 -60 -4 0 31 -26 45 -84 45 -33 0 -48 -5 -54 -17z"/>
<path d="M649 2964 c-12 -14 -23 -81 -59 -359 -6 -44 -15 -93 -20 -109 -6 -16
-10 -51 -10 -77 0 -26 -4 -58 -9 -71 -5 -13 -12 -59 -16 -101 l-7 -78 73 3 74
3 8 40 c5 22 13 81 18 130 5 50 16 111 24 136 8 26 15 66 15 90 0 68 5 71 115
74 113 3 125 11 125 81 0 24 4 54 9 68 15 37 -3 45 -110 48 l-94 3 0 65 0 65
-61 3 c-47 2 -64 -1 -75 -14z"/>
<path d="M583 1610 c-44 -26 -53 -48 -53 -125 l0 -67 75 -73 c74 -72 88 -99
66 -133 -11 -19 -41 11 -41 42 0 31 -18 46 -56 46 -37 0 -44 -12 -44 -74 0
-33 6 -48 28 -68 41 -40 74 -49 132 -37 70 15 90 43 90 125 0 77 -8 99 -55
144 -84 80 -95 93 -95 110 0 35 29 31 44 -5 15 -35 40 -44 80 -29 26 10 22 95
-6 121 -53 48 -111 56 -165 23z"/>
<path d="M1113 1613 c-10 -3 -13 -62 -13 -244 l0 -240 48 3 47 3 3 153 c2 127
5 152 18 152 23 0 26 -21 28 -168 l1 -137 48 -3 47 -3 0 190 0 191 -36 15
c-25 10 -41 12 -54 5 -37 -20 -50 -12 -50 28 0 21 -5 43 -12 50 -12 12 -52 15
-75 5z"/>
<path d="M1764 1606 c-12 -31 1 -51 33 -54 60 -6 97 34 54 58 -29 15 -81 12
-87 -4z"/>
<path d="M2777 1607 c-16 -11 -17 -35 -15 -242 l3 -230 95 -7 c52 -4 102 -5
111 -2 8 2 23 20 32 39 21 44 24 278 5 320 -16 35 -62 59 -87 45 -39 -21 -51
-13 -51 34 0 31 -5 46 -16 50 -25 10 -59 7 -77 -7z m123 -282 c0 -113 -2 -135
-15 -135 -13 0 -15 22 -15 135 0 113 2 135 15 135 13 0 15 -22 15 -135z"/>
<path d="M3488 1609 c-12 -7 -18 -22 -18 -49 0 -43 -5 -46 -45 -28 -31 14 -67
-2 -84 -39 -7 -14 -11 -87 -11 -178 0 -199 -1 -197 132 -189 51 3 99 7 106 10
9 2 12 58 12 233 0 217 -1 231 -19 241 -25 13 -51 12 -73 -1z m-18 -285 c0
-99 -3 -124 -14 -124 -7 0 -16 10 -20 23 -9 36 -7 183 4 212 20 52 30 14 30
-111z"/>
<path d="M3732 1610 l-22 -9 2 -233 3 -233 55 0 55 0 3 95 c2 52 7 99 12 104
16 16 31 -44 30 -114 -1 -36 -1 -71 -1 -78 1 -9 16 -12 54 -10 l52 3 0 235 0
235 -26 9 c-14 5 -38 6 -53 2 -25 -6 -26 -9 -26 -72 0 -66 -13 -109 -31 -99
-5 4 -9 39 -9 79 0 43 -5 77 -12 84 -14 14 -53 15 -86 2z"/>
<path d="M5238 1613 c-16 -4 -18 -27 -20 -234 -2 -126 -1 -234 0 -239 4 -12
102 -14 102 -2 0 4 1 110 1 236 0 179 -2 231 -13 237 -14 9 -41 10 -70 2z"/>
<path d="M5664 1606 c-13 -33 1 -51 38 -54 29 -2 39 1 48 18 9 16 8 25 -1 36
-15 19 -78 18 -85 0z"/>
<path d="M5958 1609 c-12 -7 -18 -22 -18 -49 0 -32 -4 -40 -18 -40 -10 0 -23
5 -29 11 -7 7 -21 6 -46 -4 -33 -14 -36 -19 -42 -69 -4 -30 -5 -109 -3 -176 4
-162 5 -163 146 -155 l102 6 0 237 c0 208 -2 239 -16 244 -23 9 -57 7 -76 -5z
m-23 -284 c0 -86 -3 -119 -12 -122 -10 -4 -13 25 -13 122 0 97 3 126 13 123 9
-4 12 -37 12 -123z"/>
<path d="M6387 1613 c-10 -9 -9 -481 1 -486 4 -3 27 -2 52 2 l45 6 3 230 c2
207 1 231 -15 242 -18 14 -75 18 -86 6z"/>
<path d="M6543 1613 c-10 -3 -13 -62 -13 -244 l0 -240 48 3 47 3 3 144 c2 135
9 171 33 171 5 0 10 -71 11 -157 l3 -158 50 0 50 0 3 130 c2 72 0 154 -3 183
-6 46 -11 56 -38 73 -18 10 -39 16 -47 13 -8 -4 -25 -9 -37 -11 -21 -5 -23 -2
-23 34 0 21 -5 44 -12 51 -12 12 -52 15 -75 5z"/>
<path d="M7104 1606 c-17 -43 21 -67 82 -52 32 9 33 51 2 60 -40 10 -78 6 -84
-8z"/>
<path d="M8155 1608 c-3 -7 0 -44 5 -83 6 -38 15 -115 20 -170 6 -55 16 -127
23 -160 l13 -60 82 -3 c45 -2 82 -2 83 0 0 2 2 37 5 78 3 41 11 102 19 135 7
33 16 106 20 161 6 111 5 114 -55 114 -43 0 -51 -18 -66 -150 -13 -112 -34
-83 -34 46 0 102 -1 104 -71 104 -23 0 -42 -5 -44 -12z"/>
<path d="M4314 1563 c-3 -10 -12 -31 -21 -46 -13 -25 -13 -30 1 -52 13 -19 16
-53 16 -163 0 -122 2 -141 18 -155 21 -19 117 -24 128 -6 3 6 -3 24 -15 40
-19 25 -21 42 -21 147 0 128 9 155 42 125 15 -14 18 -34 19 -137 1 -67 4 -134
8 -151 6 -29 8 -30 66 -30 68 0 80 15 45 55 -17 20 -20 37 -20 127 0 89 3 110
23 144 l22 40 -22 17 c-11 9 -23 26 -25 37 -2 16 -12 21 -46 23 -40 3 -43 1
-48 -27 -4 -16 -13 -32 -21 -36 -20 -7 -43 12 -43 35 0 21 -19 30 -66 30 -24
0 -36 -5 -40 -17z"/>
<path d="M883 1520 c-60 -36 -65 -54 -61 -209 3 -128 5 -142 25 -162 25 -26
104 -36 145 -20 38 14 69 67 66 111 -3 34 -4 35 -48 35 -43 0 -45 -1 -48 -32
-4 -37 -28 -64 -37 -41 -11 27 -1 241 11 245 7 2 15 -12 18 -31 8 -41 41 -56
83 -37 22 10 25 16 20 47 -8 50 -31 81 -73 99 -47 20 -62 19 -101 -5z"/>
<path d="M2063 1529 c-7 -7 -42 -13 -80 -13 l-68 -1 0 -190 0 -190 45 0 45 0
3 158 c2 149 4 157 22 157 14 0 20 -7 20 -22 1 -13 2 -84 3 -158 l2 -135 47
-3 47 -3 3 163 c4 215 21 217 28 3 l5 -160 55 0 55 0 3 160 c3 172 -3 203 -45
230 -24 16 -27 16 -59 -1 -34 -19 -37 -18 -104 10 -9 4 -21 1 -27 -5z"/>
<path d="M2495 1530 c-11 -5 -50 -9 -87 -9 l-67 -1 -3 -186 c-2 -102 0 -190 3
-196 3 -5 26 -8 50 -6 l44 3 3 149 c2 142 11 184 33 170 5 -3 9 -77 9 -165 l0
-160 48 3 47 3 3 158 c2 144 4 158 20 155 15 -3 18 -22 22 -158 l5 -155 48 -3
47 -3 0 173 c0 184 -4 204 -51 229 -16 8 -28 6 -55 -10 -33 -20 -35 -20 -66
-2 -23 13 -39 16 -53 11z"/>
<path d="M3135 1530 c-3 -5 -15 -10 -25 -10 -33 0 -61 -48 -58 -99 l3 -46 42
-3 42 -3 3 43 c4 51 22 53 26 3 3 -28 -2 -40 -20 -55 -13 -11 -28 -19 -34 -20
-6 0 -23 -9 -38 -21 -24 -19 -26 -26 -26 -100 0 -99 5 -102 140 -92 l95 8 3
159 c2 142 1 161 -17 189 -26 41 -120 73 -136 47z m33 -287 c-3 -55 -21 -65
-26 -15 -4 39 3 62 18 62 7 0 10 -18 8 -47z"/>
<path d="M4090 1522 c-55 -27 -69 -67 -69 -202 -1 -98 2 -120 19 -148 24 -38
59 -54 119 -53 58 1 86 28 101 95 9 44 9 52 -7 63 -41 31 -90 7 -95 -47 -5
-57 -23 -35 -23 28 l0 57 65 5 65 5 -1 61 c-1 80 -25 121 -79 140 -50 17 -52
17 -95 -4z m70 -108 c0 -24 -4 -34 -12 -32 -15 5 -22 42 -14 64 10 25 26 5 26
-32z"/>
<path d="M4710 1523 c-54 -22 -64 -44 -68 -166 -5 -133 1 -167 37 -206 26 -27
35 -31 85 -31 47 0 61 4 86 28 25 22 31 36 33 76 2 58 -15 76 -60 60 -22 -7
-29 -17 -33 -47 -3 -21 -8 -38 -12 -37 -5 0 -13 0 -18 0 -7 0 -10 22 -8 58 l3
57 57 3 c70 4 83 21 75 94 -8 60 -31 92 -82 112 -47 19 -49 19 -95 -1z m75
-94 c8 -23 -7 -45 -24 -35 -12 8 -15 39 -4 49 12 12 22 7 28 -14z"/>
<path d="M5082 1528 c-6 -6 -41 -12 -79 -12 l-68 -1 0 -190 0 -190 48 -3 47
-3 0 160 c0 104 4 162 11 167 25 15 32 -19 31 -171 l0 -156 51 3 52 3 0 178 0
179 -30 24 c-34 27 -46 29 -63 12z"/>
<path d="M5440 1526 c-59 -22 -70 -52 -70 -203 0 -125 1 -133 25 -161 46 -55
137 -58 185 -7 18 19 24 37 24 71 1 56 -18 74 -61 58 -22 -7 -29 -16 -31 -44
-7 -73 -42 -60 -42 15 0 53 13 65 72 65 56 0 68 15 68 82 0 53 -34 105 -81
125 -37 15 -43 15 -89 -1z m68 -108 c-3 -35 -22 -48 -32 -22 -9 24 2 54 20 54
11 0 14 -9 12 -32z"/>
<path d="M6160 1522 c-55 -27 -69 -67 -70 -203 0 -105 2 -119 23 -150 28 -41
85 -61 137 -46 50 13 67 32 80 90 9 45 9 53 -7 64 -41 31 -90 7 -95 -47 -5
-57 -23 -35 -23 28 l0 57 65 5 65 5 -3 60 c-4 81 -27 123 -77 141 -50 17 -52
17 -95 -4z m70 -108 c0 -24 -4 -34 -12 -32 -15 5 -22 42 -14 64 10 25 26 5 26
-32z"/>
<path d="M6873 1513 c-46 -30 -52 -46 -60 -162 -6 -87 13 -184 40 -208 11 -10
41 -18 78 -21 55 -4 63 -2 89 23 15 15 34 47 41 72 11 42 11 47 -6 59 -10 8
-28 14 -40 14 -25 0 -63 -25 -53 -35 10 -10 -13 -66 -26 -62 -6 2 -11 28 -11
63 l0 59 62 3 c79 4 90 18 73 95 -14 64 -30 91 -71 111 -45 22 -69 20 -116
-11z m77 -94 c0 -52 -24 -48 -28 4 -2 28 1 37 12 37 12 0 16 -11 16 -41z"/>
<path d="M7405 1531 c-6 -6 -41 -11 -80 -13 l-70 -3 2 -190 2 -190 48 0 48 0
3 150 c2 145 11 188 32 155 5 -8 10 -81 10 -162 l0 -148 45 0 45 0 0 148 c0
81 5 154 10 162 21 33 30 -10 32 -155 l3 -150 53 -3 52 -3 0 180 0 180 -33 25
c-41 31 -41 31 -78 6 -25 -19 -31 -19 -51 -6 -34 21 -63 27 -73 17z"/>
<path d="M7852 1526 c-65 -24 -67 -30 -67 -201 0 -146 1 -156 22 -177 17 -16
37 -23 81 -26 54 -4 62 -2 91 24 32 29 55 92 44 120 -7 18 -58 27 -82 14 -13
-7 -21 -21 -21 -38 0 -15 -5 -34 -10 -42 -17 -27 -31 4 -28 61 l3 54 63 3 c54
3 64 6 71 25 22 57 -16 153 -69 179 -40 20 -53 20 -98 4z m58 -86 c12 -22 -4
-65 -21 -55 -16 10 -10 75 7 75 2 0 8 -9 14 -20z"/>
<path d="M1374 1506 c-6 -16 -4 -40 14 -156 6 -36 13 -100 17 -142 l7 -78 53
0 53 0 18 58 c23 76 34 86 34 32 0 -85 5 -91 69 -88 l56 3 6 90 c4 50 12 108
17 130 6 22 12 67 14 100 l3 60 -45 0 c-43 0 -45 -2 -48 -30 -1 -16 -5 -46 -8
-65 -6 -34 -6 -35 -16 -10 -5 14 -13 43 -17 65 -6 40 -7 40 -51 40 l-45 0 -7
-55 c-15 -106 -21 -111 -32 -25 l-11 80 -38 3 c-26 2 -39 -1 -43 -12z"/>
<path d="M1758 1513 c-1 -4 -2 -93 0 -196 l3 -188 52 3 52 3 0 190 0 190 -52
3 c-28 2 -53 -1 -55 -5z"/>
<path d="M5660 1325 l0 -196 48 3 47 3 0 190 0 190 -47 3 -48 3 0 -196z"/>
<path d="M7100 1325 l0 -195 55 0 c30 0 55 3 55 8 1 18 1 358 0 370 0 8 -18
12 -55 12 l-55 0 0 -195z"/>
<path d="M8061 1206 c-7 -8 -11 -27 -9 -43 3 -25 7 -28 38 -28 38 0 47 16 36
61 -7 28 -46 33 -65 10z"/>
<path d="M8437 1213 c-5 -9 -10 -50 -8 -71 1 -9 13 -12 39 -10 32 3 37 7 40
31 2 16 -2 35 -9 43 -12 15 -55 19 -62 7z"/>
</g>
</svg>
