<?xml version="1.0" standalone="no"?>
<!DOCTYPE svg PUBLIC "-//W3C//DTD SVG 20010904//EN"
 "http://www.w3.org/TR/2001/REC-SVG-20010904/DTD/svg10.dtd">
<svg version="1.0" xmlns="http://www.w3.org/2000/svg"
 width="489.000000pt" height="693.000000pt" viewBox="0 0 489.000000 693.000000"
 preserveAspectRatio="xMidYMid meet">
<metadata>
Created by potrace 1.10, written by Peter Selinger 2001-2011
</metadata>
<g transform="translate(0.000000,693.000000) scale(0.100000,-0.100000)"
fill="#FFFFFF" stroke="none">
<path d="M177 6743 c-9 -8 -9 -4330 -1 -4412 4 -33 11 -61 15 -61 5 0 9 986 9
2204 0 1212 3 2211 6 2220 6 15 212 16 2239 16 1317 0 2236 -4 2239 -9 11 -17
7 -4561 -4 -4581 -5 -10 -10 -36 -10 -57 0 -21 -7 -60 -15 -87 -8 -27 -15 -63
-15 -80 0 -17 -7 -40 -15 -50 -8 -11 -15 -31 -15 -45 0 -14 -7 -35 -15 -45 -8
-11 -15 -31 -15 -45 -1 -14 -7 -37 -15 -51 -8 -14 -14 -33 -15 -43 0 -10 -7
-25 -15 -33 -8 -9 -15 -24 -15 -33 0 -10 -7 -24 -15 -31 -8 -7 -15 -20 -15
-30 0 -10 -7 -23 -15 -30 -8 -7 -15 -19 -15 -27 0 -8 -14 -35 -30 -60 -17 -24
-30 -49 -30 -54 0 -18 25 -4 29 16 2 10 9 25 17 33 8 7 14 20 14 28 0 8 4 14
9 14 5 0 13 10 17 22 3 12 13 28 20 36 8 7 14 19 14 26 0 8 7 19 15 26 8 7 15
25 15 41 0 16 5 29 10 29 6 0 10 6 10 13 0 7 9 29 20 50 11 20 20 47 20 59 0
13 7 32 15 42 8 11 15 34 15 50 0 17 7 40 15 50 8 11 15 31 15 45 0 13 4 38 9
55 6 17 15 67 20 111 6 44 14 100 17 125 8 57 16 4519 8 4542 -5 17 -114 18
-2273 18 -1247 0 -2271 -3 -2274 -7z"/>
<path d="M335 6478 c-3 -57 -4 -1023 -2 -2148 4 -2166 2 -2062 45 -2245 6 -22
15 -65 21 -95 15 -73 39 -158 56 -195 8 -16 24 -55 35 -85 41 -108 163 -335
241 -450 102 -149 345 -396 478 -486 25 -17 75 -50 111 -75 36 -24 85 -54 110
-67 25 -13 63 -33 85 -45 22 -12 60 -31 85 -41 25 -10 54 -22 65 -27 11 -4 38
-16 60 -25 22 -9 56 -20 75 -24 19 -5 67 -18 105 -30 146 -45 391 -79 540 -75
148 4 357 23 368 34 6 6 28 11 48 11 34 0 70 8 189 45 25 7 59 16 77 20 18 3
55 17 83 31 27 13 52 24 55 24 3 0 33 13 67 28 35 16 74 34 88 40 14 6 46 24
71 39 26 15 72 43 102 61 31 18 57 36 59 40 2 4 32 28 68 54 182 133 404 368
495 526 6 10 19 31 31 47 11 17 28 44 36 60 8 17 35 68 60 115 24 47 51 106
60 130 33 93 57 167 73 225 9 33 21 72 27 87 5 15 14 54 19 88 5 33 13 88 19
123 24 154 30 636 30 2455 0 1053 -2 1918 -5 1923 -4 5 -841 9 -2115 9 l-2108
0 -7 -102z m4077 -51 c17 -5 18 -28 18 -340 0 -251 -3 -338 -12 -343 -15 -9
-3888 -9 -3917 1 -15 5 -21 15 -22 38 -7 289 -4 629 5 635 6 4 49 9 96 12 106
6 3808 3 3832 -3z m-8 -797 l26 -10 0 -1612 c0 -1405 -2 -1629 -16 -1738 -8
-69 -20 -139 -25 -157 -5 -17 -14 -56 -19 -85 -21 -119 -82 -283 -171 -462
-46 -93 -172 -285 -221 -337 -18 -19 -61 -67 -95 -105 -35 -38 -97 -98 -139
-134 -42 -36 -83 -72 -92 -80 -8 -8 -23 -19 -33 -25 -10 -5 -49 -31 -87 -57
-37 -26 -88 -58 -113 -71 -24 -13 -66 -35 -92 -50 -26 -14 -72 -35 -102 -46
-30 -11 -63 -25 -72 -30 -58 -29 -90 -39 -253 -80 -152 -38 -231 -46 -460 -46
-151 0 -248 5 -295 14 -139 27 -313 77 -435 124 -58 22 -230 108 -236 118 -3
5 -13 9 -23 9 -10 0 -24 7 -31 15 -13 15 -97 75 -106 75 -6 0 -112 85 -149
120 -100 95 -166 163 -213 220 -65 80 -200 280 -225 335 -10 22 -23 47 -28 55
-37 60 -34 71 37 145 46 48 181 198 215 238 13 16 47 52 74 81 84 89 211 229
241 266 16 19 41 46 56 60 14 14 68 72 119 130 50 58 128 145 173 194 45 48
92 100 105 115 13 14 47 51 75 82 28 31 85 93 126 139 41 46 89 97 105 113 17
17 39 42 50 57 23 31 181 203 300 325 44 46 91 96 104 112 47 55 105 119 190
208 47 50 112 120 145 155 32 36 79 88 105 115 25 28 91 100 146 160 103 114
154 168 240 259 60 64 115 124 254 277 58 62 164 177 236 254 72 77 151 162
176 189 24 28 51 57 59 66 8 9 60 65 115 126 163 178 169 184 203 184 17 0 42
-4 56 -10z m-1507 -173 c80 -51 118 -146 94 -234 -7 -26 -29 -61 -56 -90 -25
-26 -45 -51 -45 -56 0 -4 14 -21 30 -36 54 -49 73 -97 74 -182 1 -112 -44
-185 -142 -230 -107 -48 -261 0 -306 96 -19 39 -31 43 -58 18 -18 -16 -21 -16
-49 1 l-31 18 -87 -88 c-47 -49 -111 -118 -141 -154 -30 -35 -71 -81 -90 -102
-19 -20 -83 -88 -141 -150 -59 -62 -117 -126 -130 -142 -35 -42 -135 -150
-209 -226 -116 -120 -195 -213 -195 -231 0 -9 38 -52 85 -95 53 -49 89 -91 97
-113 18 -52 79 -108 126 -116 39 -7 127 -74 127 -98 0 -16 -94 -136 -112 -142
-9 -3 -31 5 -50 17 -84 58 -94 80 -58 125 11 14 20 30 20 35 0 15 -82 98 -98
98 -8 0 -25 -11 -38 -25 -13 -14 -27 -25 -32 -25 -5 0 -27 16 -48 35 -21 19
-43 35 -50 35 -13 0 -94 -85 -94 -99 0 -6 13 -24 30 -41 35 -36 39 -78 10
-105 -11 -10 -20 -23 -20 -28 0 -16 93 -97 111 -97 8 0 26 11 39 25 13 14 30
25 38 25 13 0 102 -84 102 -96 0 -14 -28 -55 -72 -106 -49 -56 -50 -57 -77
-44 -15 8 -46 35 -70 61 -31 34 -40 51 -36 66 10 30 -66 97 -104 91 -24 -3
-42 8 -112 73 -46 42 -88 83 -92 91 -13 22 -34 16 -57 -16 -29 -40 -56 -38
-108 10 l-43 38 47 54 c26 29 74 83 108 119 139 150 246 267 282 309 22 24 58
65 81 90 100 106 124 133 244 266 70 76 137 151 150 165 46 50 95 105 149 169
30 36 64 74 76 85 11 11 89 96 173 189 142 157 151 170 136 186 -12 13 -14 28
-10 53 6 31 4 37 -22 54 -42 27 -68 54 -97 100 -22 36 -26 54 -26 116 0 83 15
122 64 175 50 55 95 72 182 72 69 0 81 -3 123 -31 25 -17 50 -38 54 -45 11
-20 46 -17 54 4 37 101 199 144 300 79z m-1965 -580 c27 -28 71 -78 99 -109
28 -32 57 -58 64 -58 16 0 65 56 65 74 0 7 9 21 19 30 10 9 31 37 47 62 19 29
35 44 49 44 26 0 165 -136 165 -161 0 -10 -6 -22 -14 -26 -12 -7 -131 -111
-163 -141 -28 -28 -23 -34 131 -162 36 -30 66 -62 66 -71 0 -8 -12 -27 -27
-41 -16 -14 -45 -44 -66 -67 -27 -30 -43 -41 -56 -36 -10 3 -54 46 -97 95 -43
49 -86 90 -95 90 -17 0 -107 -106 -154 -180 -27 -43 -51 -50 -76 -22 -9 9 -46
42 -82 72 -37 30 -67 60 -67 66 0 6 48 57 106 112 58 56 104 105 103 111 -5
13 -216 171 -229 171 -5 0 -10 10 -10 23 0 24 141 177 163 177 7 0 33 -24 59
-53z"/>
<path d="M1265 6221 c-58 -7 -75 -34 -31 -51 26 -9 26 -10 26 -125 l0 -115 25
0 25 0 0 115 c0 114 0 116 25 125 30 11 33 35 6 50 -11 5 -21 9 -23 8 -2 0
-25 -4 -53 -7z"/>
<path d="M2127 6223 c-13 -12 -8 -268 5 -281 13 -13 126 -16 146 -4 22 15 -21
44 -52 36 -48 -12 -56 7 -56 125 0 70 -4 111 -12 119 -14 14 -22 15 -31 5z"/>
<path d="M2410 6222 c-41 -2 -80 -8 -87 -14 -18 -14 -18 -249 -1 -266 15 -15
174 -16 184 -1 12 20 -17 34 -74 36 -31 1 -61 2 -65 2 -5 1 -7 20 -5 44 l3 42
52 0 c52 0 81 14 69 34 -4 6 -34 11 -67 11 -59 0 -59 0 -59 30 l0 29 73 3 c65
3 72 5 75 24 4 27 -6 30 -98 26z"/>
<path d="M650 6081 c0 -77 4 -142 9 -145 18 -11 33 23 27 59 -8 42 19 75 62
75 43 0 51 -11 54 -75 2 -49 6 -60 22 -63 10 -2 21 1 25 6 3 5 5 71 3 147 -3
134 -3 136 -25 133 -18 -3 -23 -11 -27 -53 l-5 -50 -48 -3 c-42 -3 -48 0 -56
20 -5 13 -7 27 -4 31 9 15 -7 57 -22 57 -13 0 -15 -23 -15 -139z"/>
<path d="M949 6203 c-3 -69 2 -256 6 -264 4 -5 44 -9 91 -9 65 0 84 3 84 14 0
25 -26 37 -67 30 -30 -4 -44 -1 -62 13 -47 39 -3 94 61 78 27 -7 64 17 54 33
-4 7 -32 12 -66 12 -51 0 -60 3 -65 21 -10 31 3 38 75 41 57 3 65 5 65 23 0
18 -8 20 -87 23 -79 2 -88 1 -89 -15z"/>
<path d="M1437 6214 c-14 -15 -6 -35 18 -44 27 -10 27 -8 29 -145 1 -83 3 -90
21 -90 17 0 20 7 21 55 4 180 2 170 30 180 16 7 24 16 22 28 -3 14 -16 18 -69
20 -35 2 -68 0 -72 -4z"/>
<path d="M1654 6207 c-2 -7 -3 -71 -2 -143 l3 -129 98 -3 c76 -2 97 0 97 11 0
27 -22 35 -81 30 -55 -5 -59 -4 -70 21 -10 20 -10 32 0 52 11 25 15 26 61 22
35 -4 53 -1 62 9 17 21 -1 32 -62 35 -51 3 -55 5 -58 30 -3 27 -3 27 70 30 67
3 73 5 76 26 3 21 1 22 -93 22 -69 0 -97 -4 -101 -13z"/>
<path d="M1907 6206 c-14 -15 -17 -35 -14 -136 2 -116 11 -151 36 -136 6 4 11
37 11 77 0 38 4 69 8 69 5 0 26 -25 48 -56 64 -91 70 -98 82 -90 13 8 18 267
5 279 -3 4 -12 2 -20 -4 -8 -8 -13 -35 -13 -80 0 -67 -8 -83 -29 -56 -6 6 -24
28 -40 47 -16 20 -35 51 -43 69 -13 32 -15 33 -31 17z"/>
<path d="M2551 6206 c-13 -16 -6 -255 8 -269 4 -4 15 -5 24 -1 14 5 16 24 16
127 -1 67 -3 130 -6 140 -5 21 -26 22 -42 3z"/>
<path d="M2634 6207 c-2 -7 -3 -71 -2 -143 l3 -129 64 -3 c62 -3 65 -2 103 35
35 34 38 41 38 94 0 64 -24 116 -65 143 -30 20 -133 22 -141 3z m140 -59 c16
-22 22 -111 10 -142 -9 -23 -66 -39 -98 -27 -25 10 -26 13 -26 94 0 46 3 87 7
90 3 4 26 7 49 7 33 0 46 -5 58 -22z"/>
<path d="M2868 6204 c-2 -9 -2 -75 0 -146 l3 -129 87 3 c79 3 87 5 87 23 0 18
-6 20 -52 17 -69 -5 -95 10 -91 51 3 31 5 32 55 37 96 10 98 50 2 50 -59 0
-59 0 -59 30 l0 29 73 3 c64 3 72 5 72 23 0 18 -8 20 -87 23 -74 2 -87 0 -90
-14z"/>
<path d="M3122 6202 c-10 -18 -7 -246 3 -262 9 -14 182 -13 191 1 12 20 -16
33 -74 34 -33 1 -64 5 -71 9 -7 5 -11 45 -11 116 0 86 -3 109 -15 114 -8 3
-19 -2 -23 -12z"/>
<path d="M3350 6075 c0 -121 2 -145 15 -145 18 0 29 41 22 79 -7 35 5 47 53
55 48 9 63 -5 66 -56 1 -24 2 -49 3 -55 1 -7 10 -13 20 -13 10 0 21 6 23 13 7
20 2 257 -6 264 -17 18 -41 -16 -41 -58 l0 -44 -54 -3 c-60 -3 -75 7 -66 46 8
31 -3 62 -21 62 -11 0 -14 -26 -14 -145z"/>
<path d="M3644 6208 c-4 -6 -9 -65 -11 -130 -3 -116 -3 -118 22 -134 19 -12
41 -15 90 -12 72 4 84 10 65 33 -11 13 -24 15 -66 9 -52 -6 -54 -5 -64 22 -8
20 -8 35 -1 51 10 21 15 23 66 17 46 -6 56 -4 61 11 10 25 -15 37 -68 30 -40
-5 -49 -3 -57 14 -21 38 -4 50 72 53 64 3 72 5 72 23 0 18 -8 20 -87 23 -61 2
-89 -1 -94 -10z"/>
<path d="M3903 6208 c-10 -14 -10 -255 1 -265 16 -17 24 22 28 134 3 122 -6
161 -29 131z"/>
<path d="M4017 6213 c-4 -3 -7 -67 -7 -140 0 -123 2 -134 18 -131 13 2 18 15
20 61 2 31 5 57 8 57 18 0 43 -23 48 -45 8 -32 43 -34 55 -2 5 12 18 30 29 41
21 18 21 18 26 -5 3 -13 7 -43 8 -67 2 -23 8 -43 13 -45 6 -1 11 52 13 141 1
87 -1 142 -7 142 -5 0 -27 -36 -48 -80 -54 -113 -78 -105 -139 48 -13 31 -24
39 -37 25z"/>
<path d="M3665 4336 c-29 -13 -281 -269 -384 -391 l-51 -60 3 -625 c2 -724 -6
-678 103 -566 l64 66 0 289 0 289 85 88 85 88 128 -127 c70 -70 133 -127 139
-127 14 0 113 89 113 101 0 4 -58 66 -130 137 -71 72 -130 135 -130 141 0 10
17 31 107 129 64 69 72 99 74 277 1 88 -2 174 -6 190 -15 56 -96 116 -155 115
-8 -1 -28 -7 -45 -14z m18 -300 c3 -8 3 -41 0 -73 -6 -58 -32 -112 -69 -144
-11 -9 -44 -45 -75 -80 -136 -154 -139 -155 -139 -31 0 48 4 92 8 99 4 7 56
64 116 127 77 83 115 116 131 116 13 0 25 -6 28 -14z"/>
<path d="M2998 4112 c-63 -64 -106 -117 -126 -157 l-31 -60 -1 -218 0 -217
-40 -36 -40 -36 0 -159 c0 -148 1 -159 20 -169 16 -9 22 -8 26 5 6 15 34 21
35 8 0 -5 0 -323 1 -708 0 -580 3 -705 14 -727 14 -26 44 -39 44 -19 0 5 27
42 60 82 l60 74 0 766 0 767 45 48 45 47 0 153 c0 84 -4 155 -9 158 -5 4 -21
-7 -34 -24 -48 -57 -55 -40 -47 117 l5 102 42 43 42 43 2 98 c1 54 -2 102 -7
107 -6 6 -44 -25 -106 -88z"/>
<path d="M2551 3150 l-71 -69 0 -418 c0 -230 -4 -424 -8 -431 -6 -9 -14 -4
-30 18 -12 16 -22 34 -22 40 0 10 -84 192 -115 251 -8 14 -23 51 -35 82 -12
32 -33 71 -46 87 -31 36 -48 30 -117 -45 l-48 -53 17 -38 c9 -22 22 -54 30
-72 7 -18 20 -47 28 -65 8 -17 22 -50 31 -72 9 -22 30 -69 47 -105 16 -36 36
-80 44 -98 30 -71 47 -108 55 -122 5 -8 12 -22 15 -30 29 -80 102 -226 119
-240 19 -16 11 -23 148 133 32 36 61 67 63 70 7 6 5 1227 -1 1238 -13 20 -35
7 -104 -61z"/>
<path d="M3840 2594 c-36 -33 -40 -41 -40 -84 0 -44 4 -52 36 -78 50 -42 116
-48 161 -14 39 29 52 65 46 125 -5 45 -4 47 19 47 14 0 42 -7 62 -15 32 -14
36 -19 36 -54 0 -25 -7 -44 -20 -56 -27 -25 -25 -45 4 -45 17 0 30 11 45 36
37 62 22 113 -44 154 -28 17 -49 20 -149 20 l-116 0 -40 -36z m119 -4 c10 -5
26 -28 35 -50 15 -38 15 -42 -1 -65 -30 -39 -124 -39 -139 0 -4 8 -3 31 0 50
5 27 15 39 44 55 44 23 39 22 61 10z"/>
<path d="M3806 2368 c-7 -13 -19 -57 -24 -98 -13 -88 -7 -99 53 -103 48 -3 60
23 20 41 -20 9 -25 19 -25 46 0 90 6 89 222 -28 94 -52 103 -56 116 -56 19 0
14 37 -5 43 -10 3 -54 26 -98 51 -44 25 -108 60 -142 77 -35 17 -63 35 -63 40
0 18 -40 8 -54 -13z"/>
<path d="M3751 2087 c-14 -6 -33 -26 -43 -43 -18 -31 -18 -33 1 -76 23 -55 78
-93 118 -83 22 5 33 -1 73 -44 44 -49 49 -51 98 -51 48 0 55 3 92 41 44 46 49
72 24 122 -30 60 -61 77 -133 75 -58 -1 -66 1 -85 25 -35 44 -98 59 -145 34z
m96 -49 c32 -30 32 -85 0 -97 -34 -13 -74 -2 -92 26 -15 22 -15 26 5 58 25 41
53 45 87 13z m179 -54 c45 -22 69 -65 53 -97 -32 -62 -93 -74 -141 -27 -25 26
-29 35 -23 63 10 44 34 69 73 76 2 1 19 -6 38 -15z"/>
<path d="M1135 1995 l6 -55 -38 -16 c-21 -10 -65 -29 -98 -44 -33 -16 -79 -36
-102 -46 -42 -18 -54 -36 -33 -49 6 -3 43 10 83 29 40 20 76 36 80 36 3 0 31
12 61 26 44 21 58 23 75 14 12 -6 21 -19 21 -29 0 -24 25 -45 45 -38 15 6 14
7 -64 189 -25 59 -45 50 -36 -17z"/>
<path d="M3629 1808 c-1 -7 -1 -17 0 -21 1 -4 2 -20 3 -35 3 -53 38 -70 54
-26 l9 26 60 -41 c33 -23 63 -41 67 -41 4 0 27 -13 51 -30 42 -28 97 -40 97
-22 0 9 -55 52 -66 52 -3 0 -46 27 -96 60 -49 33 -95 60 -102 60 -8 0 -19 7
-26 15 -15 18 -50 20 -51 3z"/>
<path d="M1226 1731 c-20 -32 -43 -61 -51 -65 -8 -3 -15 -12 -15 -20 0 -8 -6
-21 -13 -28 -39 -39 -105 -146 -95 -156 9 -9 64 -1 113 17 62 24 184 63 207
68 35 7 55 30 40 45 -7 7 -30 3 -79 -14 -109 -40 -183 -62 -188 -56 -8 8 22
62 50 88 14 13 25 28 25 33 0 5 21 35 46 67 46 58 50 80 15 80 -11 0 -32 -22
-55 -59z"/>
<path d="M885 1709 c-8 -25 6 -42 31 -37 12 2 20 13 22 31 3 23 0 27 -22 27
-16 0 -27 -7 -31 -21z"/>
<path d="M3290 1406 c0 -14 8 -30 18 -35 11 -6 38 -36 62 -68 59 -78 150 -173
166 -173 20 0 154 118 154 135 0 28 -35 15 -87 -30 -28 -25 -56 -45 -62 -45
-12 0 -65 56 -152 160 -67 81 -99 99 -99 56z"/>
<path d="M1544 1371 c-57 -40 -90 -83 -113 -146 -25 -65 -25 -68 -8 -118 46
-132 189 -140 278 -15 l19 27 -42 40 c-44 43 -54 47 -78 31 -12 -9 -9 -15 20
-39 31 -26 33 -31 23 -53 -13 -30 -76 -62 -103 -53 -10 3 -33 19 -49 35 -26
24 -31 35 -31 77 0 39 7 59 35 100 40 60 92 103 124 103 55 0 101 -49 101
-106 0 -31 26 -42 48 -20 14 14 14 20 3 53 -15 42 -33 62 -83 93 -47 29 -97
26 -144 -9z"/>
<path d="M1125 1369 c-6 -19 7 -38 26 -39 17 0 39 27 33 43 -9 25 -51 22 -59
-4z"/>
<path d="M3177 1333 c-12 -11 -8 -40 8 -53 8 -7 15 -20 15 -29 0 -9 12 -27 26
-41 14 -13 30 -33 35 -45 46 -100 123 -179 142 -147 5 7 -127 213 -176 276
-12 16 -23 33 -25 37 -4 11 -16 12 -25 2z"/>
<path d="M3040 1264 c-14 -7 -59 -28 -101 -47 -42 -20 -79 -42 -82 -50 -7 -18
7 -57 61 -170 23 -48 42 -92 42 -98 0 -25 32 -69 50 -69 18 0 98 33 190 78 19
9 35 22 35 27 0 22 -48 14 -120 -19 -41 -19 -82 -33 -89 -30 -19 7 -59 92 -52
110 3 7 32 27 65 43 33 17 62 35 66 41 10 16 -25 25 -46 12 -19 -12 -98 -42
-111 -42 -12 0 -50 81 -44 95 5 14 127 75 151 75 12 0 35 28 35 43 0 12 -27
12 -50 1z"/>
<path d="M1811 1223 c-7 -21 -19 -51 -27 -68 -33 -75 -47 -124 -51 -180 -4
-70 8 -90 75 -124 92 -47 168 -13 193 84 4 16 17 55 29 85 12 30 25 66 29 80
6 20 15 26 45 28 22 2 47 -3 62 -12 22 -15 23 -21 18 -79 -3 -34 -10 -76 -15
-93 -15 -51 -29 -144 -22 -159 9 -26 31 -16 38 18 19 100 25 130 42 207 l19
85 44 0 c33 0 45 4 48 16 2 13 -9 18 -58 23 -33 4 -77 13 -98 20 -21 8 -60 11
-92 9 -54 -5 -56 -6 -73 -47 -9 -23 -17 -47 -17 -53 0 -7 -6 -27 -14 -45 -8
-18 -20 -48 -27 -67 -14 -37 -50 -81 -67 -81 -26 0 -102 41 -117 63 -15 23
-15 29 1 79 10 29 23 62 31 73 7 11 13 27 13 36 0 9 7 30 16 47 21 43 23 85 4
89 -10 3 -20 -9 -29 -34z"/>
<path d="M2744 1177 c-3 -8 -1 -41 5 -72 15 -78 6 -91 -66 -98 -32 -4 -69 -8
-82 -9 -21 -3 -25 3 -40 62 -12 48 -21 66 -35 68 -17 4 -18 0 -11 -35 4 -21 9
-52 11 -69 2 -18 11 -67 20 -110 9 -44 19 -94 21 -112 4 -27 9 -33 27 -30 15
2 20 8 16 23 -2 11 -5 49 -5 85 l0 64 65 14 c108 24 102 27 117 -58 14 -75 28
-104 44 -94 13 8 11 68 -6 137 -8 34 -22 102 -32 151 -17 84 -36 116 -49 83z"/>
<path d="M2337 934 c-4 -4 -7 -16 -7 -26 0 -14 8 -18 39 -18 22 0 45 -2 53 -5
19 -8 56 21 43 33 -13 12 -118 25 -128 16z"/>
<path d="M2745 5430 c-3 -5 -14 -10 -24 -10 -36 0 -118 -123 -100 -151 5 -8 9
-24 9 -37 0 -26 58 -88 96 -102 63 -24 142 -1 186 55 33 42 32 138 -2 184 -37
50 -147 91 -165 61z"/>
<path d="M2299 5392 c-35 -10 -70 -40 -97 -83 -17 -28 -22 -52 -22 -106 0 -62
3 -75 31 -112 35 -50 80 -71 146 -71 98 0 151 31 184 108 35 79 18 160 -46
222 -36 35 -46 39 -105 43 -36 3 -76 2 -91 -1z"/>
<path d="M2671 5040 c-71 -40 -121 -104 -121 -155 0 -61 23 -116 66 -160 49
-49 83 -60 170 -53 48 4 60 10 97 46 39 38 67 97 67 139 0 27 -29 103 -50 132
-44 63 -161 89 -229 51z"/>
<path d="M200 2172 c0 -35 7 -79 15 -99 8 -19 15 -52 15 -72 1 -20 7 -47 15
-61 8 -14 14 -37 15 -52 0 -26 15 -69 46 -131 8 -16 14 -39 14 -51 0 -12 7
-31 15 -42 8 -10 15 -33 15 -51 0 -17 4 -34 8 -37 5 -3 28 -44 52 -91 23 -47
47 -85 51 -85 5 0 9 -8 9 -18 0 -10 5 -23 11 -29 13 -13 33 -47 48 -80 6 -13
15 -23 21 -23 5 0 10 -9 10 -20 0 -11 7 -23 15 -26 8 -4 15 -12 15 -18 0 -7
13 -26 30 -42 16 -16 30 -34 30 -41 0 -7 14 -26 30 -43 17 -17 30 -33 30 -35
0 -7 115 -128 184 -194 32 -31 72 -71 89 -88 17 -18 36 -33 43 -33 6 0 14 -7
18 -15 3 -8 12 -15 19 -15 8 0 27 -13 43 -30 16 -16 35 -30 42 -30 6 0 12 -4
12 -9 0 -16 71 -54 81 -44 6 6 -14 25 -55 52 -60 38 -90 61 -135 101 -9 8 -43
36 -74 62 -32 26 -84 75 -117 110 -32 35 -77 83 -100 108 -23 25 -53 64 -67
88 -14 23 -29 42 -34 42 -5 0 -9 7 -9 15 0 8 -4 15 -9 15 -7 0 -61 78 -83 120
-5 8 -17 29 -28 45 -10 17 -30 53 -45 80 -14 28 -29 57 -34 65 -9 15 -28 57
-75 165 -15 33 -33 73 -41 88 -8 16 -15 41 -15 56 0 15 -7 36 -15 47 -8 10
-15 33 -15 49 0 17 -7 41 -15 55 -8 14 -14 40 -15 58 0 19 -6 48 -14 65 -8 18
-16 61 -19 96 -7 88 -27 105 -27 23z"/>
<path d="M4303 1176 c-13 -13 -23 -27 -23 -30 0 -4 -13 -21 -30 -39 -16 -18
-30 -38 -30 -45 0 -7 -7 -15 -15 -18 -8 -4 -15 -10 -15 -14 0 -9 -244 -256
-258 -262 -12 -4 -75 -55 -113 -90 -16 -16 -32 -28 -35 -28 -5 0 -64 -40 -74
-50 -7 -7 -41 -28 -65 -40 -11 -6 -33 -19 -50 -30 -16 -11 -40 -24 -52 -29
-11 -5 -24 -15 -28 -20 -3 -6 -14 -11 -24 -11 -10 0 -24 -6 -31 -14 -6 -8 -21
-16 -32 -18 -12 -2 -23 -9 -26 -15 -5 -18 33 -16 48 2 7 8 21 15 31 15 9 0 24
7 33 15 8 8 21 15 29 15 8 0 33 14 55 30 23 17 44 30 48 30 4 0 76 51 109 78
6 4 18 11 28 15 9 3 17 11 17 17 0 5 5 10 11 10 15 0 84 54 137 107 24 24 47
43 52 43 9 0 123 125 128 140 2 6 10 10 18 10 8 0 14 4 14 8 0 5 13 21 28 38
41 43 92 111 92 122 0 5 7 12 15 16 8 3 15 12 15 20 0 8 5 16 12 18 6 2 9 9 7
16 -2 7 -13 2 -26 -12z"/>
<path d="M1250 550 c0 -6 10 -15 23 -21 33 -15 67 -35 80 -48 6 -6 19 -11 28
-11 10 0 19 -4 21 -8 3 -8 102 -58 191 -97 22 -9 46 -13 55 -9 13 5 9 9 -18
17 -19 6 -41 17 -48 24 -7 7 -22 13 -31 13 -10 0 -24 7 -31 15 -7 8 -20 15
-30 15 -10 0 -23 7 -30 15 -7 8 -23 15 -35 15 -13 0 -25 7 -29 15 -3 8 -15 15
-26 15 -11 0 -20 4 -20 9 0 5 -10 13 -22 17 -12 3 -28 13 -36 20 -16 16 -42
18 -42 4z"/>
<path d="M3320 394 c-19 -9 -42 -20 -50 -25 -21 -13 -31 -16 -62 -23 -16 -4
-28 -11 -28 -16 0 -16 47 -12 64 5 8 8 22 15 30 15 22 0 116 42 116 52 0 13
-32 9 -70 -8z"/>
<path d="M1680 341 c0 -5 15 -13 33 -16 17 -4 41 -14 52 -21 22 -16 75 -19 75
-4 0 5 -16 12 -37 16 -20 4 -48 13 -62 20 -30 16 -61 18 -61 5z"/>
<path d="M3107 313 c-25 -24 18 -32 49 -8 18 14 17 14 -12 15 -17 0 -34 -3
-37 -7z"/>
<path d="M1850 281 c0 -12 63 -23 86 -14 17 6 16 8 -6 14 -37 10 -80 10 -80 0z"/>
<path d="M2967 274 c-3 -4 -35 -12 -69 -19 l-63 -13 56 -1 c30 0 59 3 65 8 5
5 29 14 54 19 l45 10 -41 1 c-22 1 -44 -2 -47 -5z"/>
<path d="M1970 251 c0 -12 36 -21 83 -21 45 0 49 15 6 24 -45 9 -89 7 -89 -3z"/>
<path d="M2170 220 c-6 -4 19 -10 57 -13 40 -4 71 -3 77 3 6 6 6 10 1 11 -62
5 -127 4 -135 -1z"/>
<path d="M2570 222 c-100 -5 -99 -22 1 -21 82 1 214 14 194 19 -17 4 -126 5
-195 2z"/>
</g>
</svg>
