<?xml version="1.0" standalone="no"?>
<!DOCTYPE svg PUBLIC "-//W3C//DTD SVG 20010904//EN"
 "http://www.w3.org/TR/2001/REC-SVG-20010904/DTD/svg10.dtd">
<svg version="1.0" xmlns="http://www.w3.org/2000/svg"
 width="196.000000pt" height="234.000000pt" viewBox="0 0 196.000000 234.000000"
 preserveAspectRatio="xMidYMid meet">
<metadata>
Created by potrace 1.10, written by Peter Selinger 2001-2011
</metadata>
<g transform="translate(0.000000,234.000000) scale(0.100000,-0.100000)"
fill="#FFFFFF" stroke="none">
<path d="M40 1618 c0 -425 4 -706 11 -763 39 -317 218 -565 514 -710 157 -77
249 -100 405 -99 86 0 145 6 190 18 383 103 629 344 717 704 14 58 17 164 20
795 l4 727 -930 0 -931 0 0 -672z m798 -11 c377 -377 470 -475 460 -485 -10
-10 -107 82 -480 455 -257 257 -470 465 -472 462 -3 -3 205 -215 461 -472 257
-256 464 -469 460 -474 -8 -7 -930 907 -948 939 -13 24 -1 48 25 48 15 0 164
-143 494 -473z m-83 -87 l-29 -30 -41 40 -41 40 -39 -40 -39 -40 39 -40 39
-40 -37 -38 -37 -37 -92 93 -93 92 37 37 c37 36 37 37 58 18 20 -18 21 -18 60
20 37 36 39 40 23 57 -15 17 -15 19 0 36 23 25 22 34 -13 67 l-30 29 -23 -22
c-22 -20 -24 -21 -40 -5 -16 16 -19 15 -57 -22 -38 -37 -39 -40 -23 -57 16
-18 15 -21 -20 -56 l-37 -37 -90 90 -90 89 37 38 37 38 41 -40 41 -40 39 40
39 40 -39 40 -39 40 29 30 29 31 215 -215 215 -215 -29 -31z m-405 316 c0 -5
-16 5 -35 24 -19 19 -35 38 -35 44 0 5 16 -5 35 -24 19 -19 35 -38 35 -44z
m110 -108 c0 -6 -7 -5 -15 2 -8 7 -15 17 -15 22 0 6 7 5 15 -2 8 -7 15 -17 15
-22z m90 7 c13 -14 19 -25 13 -25 -5 0 -20 11 -33 25 -13 14 -19 25 -13 25 5
0 20 -11 33 -25z m-325 -75 c49 -49 85 -90 80 -90 -6 0 -51 41 -100 90 -49 50
-85 90 -80 90 6 0 51 -40 100 -90z m323 -12 c19 -19 14 -30 -8 -18 -11 6 -20
15 -20 20 0 14 14 12 28 -2z m162 -172 c0 -5 -16 5 -35 24 -19 19 -35 38 -35
44 0 5 16 -5 35 -24 19 -19 35 -38 35 -44z m-201 -96 c30 -28 51 -54 47 -57
-8 -8 -186 166 -186 181 0 6 19 -9 43 -32 23 -23 67 -65 96 -92z m796 -290
c-49 -49 -91 -87 -94 -84 -6 6 161 174 174 174 5 0 -31 -40 -80 -90z m132 74
c4 -11 -24 -46 -93 -115 -96 -97 -116 -110 -129 -88 -7 10 191 219 207 219 5
0 11 -7 15 -16z m206 2 c44 -18 95 -78 103 -121 8 -46 -2 -98 -26 -127 -19
-23 -19 -23 18 -60 31 -33 36 -45 40 -95 3 -48 0 -64 -20 -93 -57 -85 -177
-92 -243 -14 l-21 24 -39 -20 c-71 -36 -146 -20 -199 42 -61 71 -59 163 7 226
36 35 75 52 116 52 26 0 29 4 33 45 13 113 129 184 231 141z m-246 -133 c-4
-36 -6 -38 -43 -41 l-39 -3 40 41 c21 22 41 40 42 40 2 0 2 -17 0 -37z m-570
-91 l112 112 28 -24 c71 -63 75 -47 -44 -171 -60 -61 -108 -115 -108 -119 0
-4 48 -58 107 -119 l107 -112 -27 -31 c-54 -61 -53 -61 -176 61 l-112 112
-114 -116 -114 -115 -46 45 -45 45 115 115 115 115 -115 115 -114 115 44 45
45 46 114 -116 115 -116 113 113z"/>
<path d="M1320 1053 l-95 -98 98 95 c90 88 102 100 94 100 -1 0 -45 -44 -97
-97z"/>
<path d="M1513 1134 c-62 -31 -94 -127 -62 -185 9 -19 9 -19 -10 -10 -11 6
-39 11 -62 11 -85 0 -146 -70 -136 -157 7 -68 69 -123 137 -123 37 0 100 27
107 47 7 18 23 16 23 -3 0 -27 63 -82 102 -89 47 -9 104 17 129 59 39 63 12
150 -55 183 l-35 16 29 29 c54 54 52 143 -5 198 -42 40 -110 51 -162 24z"/>
</g>
</svg>
